<svg width="204" height="85" viewBox="0 0 204 85" fill="none" xmlns="http://www.w3.org/2000/svg">
<path d="M71.9016 17.4876C71.6287 17.2664 71.3013 17.1243 70.9545 17.0765C70.6076 17.0286 70.2544 17.0769 69.9327 17.216L38.5992 30.9043C37.2369 31.5032 35.5308 31.7878 33.7792 31.7878C31.3367 31.7977 28.8099 31.225 27.0486 30.4462C26.5119 30.2181 26.0008 29.9329 25.5242 29.5953C25.6539 29.53 25.816 29.4579 25.9945 29.3859L54.493 16.9377L58.7421 18.7703V13.4135C58.7486 13.0315 58.6693 12.6529 58.5104 12.3061C58.3514 11.9593 58.1168 11.6532 57.8242 11.4107C57.5524 11.1898 57.2262 11.0478 56.8804 11C56.5346 10.9521 56.1824 11.0002 55.8618 11.1391L24.5283 24.8275C23.5617 25.2202 22.7313 25.7045 22.0307 26.4081C21.2194 27.2156 20.7586 28.3147 20.7496 29.4645C20.7496 29.4972 20.7592 29.5528 20.7592 29.5528V77.755L20.7528 77.8204C20.7528 77.8335 20.7625 77.84 20.7625 77.8532V77.9055H20.769C20.8338 79.5908 21.6772 80.664 22.4816 81.4233C25.0117 83.6747 29.2608 84.9345 33.7824 85C35.9232 85 38.0964 84.6728 40.1074 83.8023L71.4507 70.1106C72.2779 69.7508 72.8195 68.8573 72.8195 67.8462V19.4903C72.8245 19.1085 72.7446 18.7304 72.5857 18.3838C72.427 18.0372 72.1931 17.731 71.9016 17.4876ZM52.0278 8.3249C51.9726 7.60497 51.6775 6.91778 51.152 6.50546C50.8791 6.2843 50.5517 6.1422 50.2049 6.09436C49.8581 6.0465 49.5049 6.09473 49.1832 6.23385L17.8497 19.9156C16.4873 20.5112 14.778 20.7993 13.0297 20.7993C10.5872 20.8057 8.06043 20.2331 6.29913 19.451C5.76185 19.2268 5.25062 18.9436 4.77462 18.6067C4.90437 18.5413 5.06655 18.4693 5.24495 18.3972L33.7467 5.94915L37.9959 7.78169V2.43135C38.0016 2.04911 37.9218 1.67048 37.7623 1.32371C37.6028 0.976945 37.3677 0.670984 37.0747 0.428651C36.8023 0.207782 36.4754 0.0658245 36.1292 0.01798C35.7829 -0.0298644 35.4303 0.0182063 35.109 0.157044L3.77558 13.8487C2.80898 14.2413 1.98185 14.7224 1.27799 15.4292C0.467865 16.2373 0.00829821 17.3364 0 18.4856C0 18.5249 0.00973018 18.5773 0.00973018 18.5773V66.9332H0.0162185C0.0810911 68.6185 0.924435 69.6919 1.72886 70.451C4.25889 72.7024 8.50804 73.959 13.0329 74.0245C14.2617 74.0172 15.4866 73.8833 16.6885 73.6252V29.5496C16.656 27.2589 17.5642 25.0598 19.1602 23.476C20.2657 22.394 21.5794 21.552 23.02 21.0021L52.0278 8.3249Z" fill="#8D001A"/>
<path d="M8.44072 63.5485C8.48853 63.5828 8.52678 63.6281 8.55546 63.6846C8.58654 63.7425 8.60208 63.7987 8.60208 63.8533V63.8615C8.55904 64.5719 8.53753 65.2762 8.53753 65.9746C8.53753 66.6838 8.55904 67.3789 8.60208 68.0597V68.0802C8.59729 68.1404 8.57817 68.1819 8.54471 68.2045C8.51123 68.2272 8.46702 68.2235 8.41203 68.1936C8.36422 68.1676 8.32359 68.1264 8.29011 68.0699C8.25425 68.0122 8.23393 67.9534 8.22916 67.8936C8.22198 67.8024 8.2172 67.7124 8.21481 67.6239C8.21003 67.5312 8.20525 67.44 8.20047 67.3501L3.82938 64.9699C3.8246 65.0547 3.8222 65.1407 3.8222 65.2279C3.8222 65.3126 3.8222 65.3984 3.8222 65.4858C3.81743 65.5404 3.7983 65.5791 3.76483 65.6018C3.72898 65.6232 3.68475 65.6196 3.63216 65.5909C3.57957 65.5623 3.53534 65.5164 3.49948 65.4532C3.46123 65.3887 3.44211 65.3279 3.44211 65.2705C3.44689 65.1695 3.44928 65.0712 3.44928 64.9758C3.44928 64.8776 3.44928 64.7808 3.44928 64.6852C3.44928 64.1043 3.43255 63.5196 3.39908 62.9311C3.36561 62.3427 3.31541 61.7466 3.24848 61.1428V61.1059C3.24848 61.0514 3.26522 61.0141 3.29868 60.9942C3.32976 60.9729 3.36681 60.9699 3.40984 60.9851L4.62184 61.4691L4.64694 61.4828C4.70193 61.5127 4.74614 61.56 4.77962 61.6246C4.81308 61.6864 4.82981 61.7447 4.82981 61.7992C4.82981 61.851 4.81548 61.8897 4.78679 61.915C4.7557 61.9362 4.71626 61.9393 4.66845 61.9242L3.6465 61.515C3.68475 61.8522 3.71583 62.187 3.73974 62.5192C3.76125 62.8473 3.77918 63.1763 3.79352 63.506L6.15657 64.7928C6.15417 64.7259 6.15058 64.6366 6.14581 64.5249C6.14102 64.4132 6.13385 64.292 6.12429 64.1614C6.11472 64.0279 6.10397 63.8925 6.09202 63.755C6.07767 63.6135 6.06094 63.4803 6.04182 63.3553V63.3144C6.04182 63.2571 6.06094 63.217 6.09919 63.1943C6.13504 63.1701 6.17688 63.171 6.22469 63.1971C6.2725 63.2231 6.31314 63.2617 6.34661 63.3126C6.38007 63.3636 6.40279 63.4183 6.41474 63.4766C6.43625 63.6138 6.45418 63.7585 6.46852 63.9109C6.48287 64.0606 6.49482 64.2063 6.50438 64.3479C6.51156 64.4854 6.51754 64.6114 6.52231 64.7258C6.5271 64.8403 6.53068 64.9309 6.53307 64.9977L8.16461 65.8861V65.7716C8.16461 65.4469 8.16819 65.1228 8.17537 64.7995C8.18254 64.4732 8.19569 64.1489 8.21481 63.8265L7.25382 63.156C7.20601 63.119 7.16776 63.0736 7.13907 63.0198C7.108 62.962 7.09245 62.9072 7.09245 62.8554C7.09245 62.7899 7.11277 62.749 7.15341 62.733C7.19406 62.7142 7.23469 62.7159 7.27533 62.738L7.30401 62.7536L8.44072 63.5485ZM3.33096 53.7608C3.37159 53.783 3.40984 53.8175 3.4457 53.8643C3.47916 53.907 3.50188 53.9549 3.51383 54.0077C3.53534 54.115 3.55566 54.2201 3.57478 54.3233C3.59152 54.4251 3.60587 54.527 3.61782 54.629C3.99551 54.7638 4.36247 54.9144 4.71866 55.0812C5.07485 55.2451 5.42745 55.422 5.77647 55.6122C6.24979 55.8699 6.70638 56.1403 7.14625 56.4235C7.5861 56.7039 8.01759 56.9893 8.44072 57.2797C8.4933 57.3247 8.53274 57.3749 8.55904 57.4301C8.58773 57.4838 8.60208 57.5353 8.60208 57.5844C8.60208 57.6772 8.56383 57.7205 8.48733 57.7143C8.32478 57.7022 8.12517 57.6985 7.8885 57.7033C7.64945 57.7041 7.39367 57.7135 7.12114 57.7315C6.84623 57.7454 6.56175 57.7652 6.26772 57.7905C5.97368 57.8132 5.68922 57.8383 5.41431 57.866C5.13939 57.8909 4.88241 57.916 4.64336 57.9413C4.40191 57.9653 4.19752 57.9864 4.03018 58.0044L8.18612 60.3901C8.1933 60.2903 8.20047 60.1892 8.20763 60.0867C8.21481 59.9815 8.22198 59.8763 8.22916 59.771C8.23632 59.7204 8.25784 59.6871 8.29369 59.6712C8.32955 59.6525 8.3714 59.6562 8.41921 59.6822C8.47418 59.7121 8.51841 59.7594 8.55187 59.8241C8.58534 59.8886 8.60208 59.9468 8.60208 59.9986V60.015C8.58295 60.2229 8.56861 60.4333 8.55904 60.6463C8.54948 60.8567 8.54471 61.0709 8.54471 61.2891C8.54471 61.5047 8.54948 61.7214 8.55904 61.9394C8.56861 62.1546 8.58295 62.3738 8.60208 62.597V62.6134C8.60208 62.6735 8.58296 62.7148 8.54471 62.7377C8.50885 62.7591 8.46702 62.7567 8.41921 62.7307C8.3714 62.7047 8.32955 62.6642 8.29369 62.6092C8.25784 62.5515 8.23632 62.4933 8.22916 62.4349C8.22198 62.33 8.21481 62.2253 8.20763 62.1204C8.20047 62.0128 8.1933 61.9066 8.18612 61.8018L3.66084 59.2436C3.6465 59.4704 3.62499 59.696 3.59631 59.9205C3.58913 59.9711 3.56762 60.0044 3.53176 60.0203C3.49351 60.0323 3.45048 60.0252 3.40267 59.9991C3.34529 59.968 3.30108 59.9193 3.26999 59.8533C3.23653 59.7859 3.21979 59.7291 3.21979 59.6827V59.6582C3.25325 59.3845 3.27955 59.1138 3.29868 58.8459C3.31541 58.574 3.32378 58.299 3.32378 58.0208V57.7179C3.32378 57.7152 3.32498 57.7077 3.32736 57.6954C3.32736 57.6817 3.32976 57.668 3.33454 57.6542C3.33932 57.6378 3.34768 57.6232 3.35964 57.6106C3.37159 57.5953 3.38833 57.5854 3.40984 57.5807C3.42658 57.5789 3.48036 57.5727 3.5712 57.5621C3.66204 57.5516 3.78037 57.5383 3.92619 57.5221C4.07202 57.5061 4.24055 57.4887 4.43179 57.4702C4.62303 57.4488 4.82743 57.4278 5.04497 57.4071C5.26251 57.3836 5.4884 57.3621 5.72268 57.3423C5.95696 57.3226 6.19122 57.3056 6.4255 57.2913C6.65737 57.273 6.88448 57.2589 7.1068 57.2489C7.32673 57.2351 7.53231 57.227 7.72355 57.2248C7.41039 57.0187 7.09245 56.8157 6.76973 56.6154C6.44701 56.4151 6.11592 56.2225 5.77647 56.0376C5.43701 55.8528 5.09039 55.6791 4.73658 55.5165C4.38278 55.3538 4.01943 55.2051 3.6465 55.0702C3.65128 55.1083 3.65368 55.1437 3.65368 55.1764C3.65368 55.2092 3.65368 55.2446 3.65368 55.2828C3.65368 55.4437 3.6465 55.6076 3.63216 55.7744C3.62738 55.8263 3.60706 55.8616 3.5712 55.8803C3.53295 55.8949 3.48992 55.8893 3.44211 55.8632C3.38952 55.8346 3.34529 55.7887 3.30943 55.7255C3.27358 55.6597 3.25565 55.5993 3.25565 55.5449V55.5203C3.26522 55.4491 3.27238 55.378 3.27717 55.307C3.27955 55.2318 3.28075 55.1561 3.28075 55.0798C3.28075 54.8916 3.26999 54.7016 3.24848 54.5098C3.22697 54.318 3.19588 54.1251 3.15525 53.9312C3.15047 53.9177 3.14807 53.8972 3.14807 53.8699C3.14807 53.8099 3.1672 53.7712 3.20544 53.7539C3.2413 53.7325 3.28315 53.7349 3.33096 53.7608ZM6.28924 48.8246C6.28924 48.8464 6.28684 48.8587 6.28207 48.8616C6.26055 48.9917 6.2462 49.119 6.23903 49.2433C6.22947 49.3636 6.22231 49.4838 6.21752 49.6038C6.32031 49.559 6.44582 49.5427 6.59403 49.5552C6.73985 49.5636 6.91316 49.6226 7.11397 49.7319C7.30521 49.8361 7.47853 49.9646 7.63391 50.1173C7.7869 50.2661 7.92435 50.431 8.04627 50.612C8.16581 50.7916 8.26979 50.9832 8.35824 51.1869C8.4443 51.3866 8.51602 51.5893 8.57339 51.7951C8.63077 51.9982 8.6726 52.1997 8.69889 52.3995C8.72758 52.6006 8.74192 52.7898 8.74192 52.9671C8.72997 53.4244 8.66184 53.8019 8.53753 54.0998C8.41084 54.3963 8.23393 54.6111 8.00683 54.7438C7.77973 54.8766 7.50482 54.9233 7.18209 54.8839C6.85938 54.8419 6.49362 54.7096 6.08484 54.487C5.72148 54.2891 5.39876 54.0697 5.11668 53.8288C4.8322 53.5866 4.58359 53.3326 4.37083 53.0667C4.15568 52.7969 3.9752 52.5198 3.82938 52.2359C3.68116 51.9506 3.56164 51.6686 3.47079 51.39C3.37757 51.1074 3.31063 50.8308 3.26999 50.5605C3.22697 50.2888 3.20544 50.0329 3.20544 49.7929C3.20544 49.5529 3.22816 49.3497 3.27358 49.1834C3.31661 49.0159 3.37159 48.8754 3.43853 48.7618C3.50546 48.6481 3.58076 48.561 3.66444 48.5002C3.74571 48.4353 3.8234 48.3875 3.89751 48.357L3.33096 47.8234C3.29271 47.7863 3.26282 47.7427 3.2413 47.6928C3.21741 47.6415 3.20544 47.5956 3.20544 47.5546C3.20544 47.4864 3.22697 47.445 3.26999 47.4301C3.31063 47.4141 3.35247 47.4178 3.39549 47.4413C3.40267 47.4451 3.41223 47.4517 3.42418 47.4609C3.43374 47.4689 3.44451 47.4788 3.45646 47.4908L5.12385 49.0493C5.15971 49.0825 5.18959 49.1246 5.21349 49.1759C5.23501 49.2258 5.24577 49.2739 5.24577 49.3202C5.24577 49.383 5.22665 49.4244 5.1884 49.4445C5.14776 49.4633 5.10353 49.4597 5.05572 49.4337C5.04855 49.4298 5.04018 49.4238 5.03062 49.4159C5.02105 49.408 5.0103 49.3981 4.99835 49.3861L4.3278 48.7591C4.23458 48.7765 4.14493 48.8108 4.05887 48.8622C3.97042 48.9096 3.89273 48.9737 3.8258 49.0545C3.75886 49.1326 3.70507 49.2247 3.66444 49.3308C3.62379 49.4368 3.60347 49.554 3.60347 49.6823C3.60347 50.0096 3.66563 50.3326 3.78994 50.6513C3.91186 50.9686 4.08038 51.2718 4.29553 51.5609C4.50828 51.8458 4.75691 52.1094 5.04137 52.3516C5.32585 52.5938 5.62945 52.8027 5.95217 52.9785C6.0956 53.0565 6.25457 53.1336 6.42908 53.2095C6.60359 53.2827 6.78049 53.3449 6.95978 53.3962C7.13907 53.4447 7.31238 53.4764 7.47972 53.4911C7.64705 53.5031 7.79647 53.4876 7.92795 53.4447C8.05943 53.4017 8.16461 53.3252 8.2435 53.2154C8.32238 53.1056 8.36182 52.9512 8.36182 52.752C8.36182 52.4191 8.32597 52.1133 8.25425 51.8341C8.18254 51.555 8.08812 51.3072 7.97097 51.0906C7.85384 50.8713 7.71997 50.6838 7.56936 50.5282C7.41876 50.3726 7.26457 50.2518 7.1068 50.1658C6.96815 50.0904 6.84862 50.047 6.74822 50.036C6.64542 50.0237 6.56056 50.0293 6.49363 50.0529C6.4243 50.0752 6.37051 50.1073 6.33226 50.1492C6.29402 50.1912 6.26772 50.2259 6.25338 50.2536C6.27012 50.4073 6.29163 50.5485 6.31793 50.6775C6.34421 50.8037 6.36932 50.9127 6.39323 51.0049C6.41713 51.0943 6.43864 51.1661 6.45776 51.22C6.4745 51.2701 6.48287 51.2965 6.48287 51.2992C6.50199 51.3396 6.51156 51.3789 6.51156 51.4171C6.51156 51.4798 6.49243 51.5213 6.45418 51.5414C6.41355 51.5602 6.36932 51.5566 6.32151 51.5305C6.25219 51.4928 6.1972 51.426 6.15657 51.3302C6.15417 51.3207 6.13625 51.2673 6.10277 51.17C6.0693 51.0727 6.03345 50.9427 5.9952 50.78C5.95456 50.6133 5.91871 50.4191 5.88762 50.1976C5.85655 49.9734 5.84101 49.7303 5.84101 49.4684C5.84101 49.1875 5.86611 48.8928 5.91631 48.5847C5.92348 48.5394 5.94499 48.5102 5.98085 48.4971C6.01433 48.4798 6.05377 48.4835 6.09919 48.5083C6.16134 48.5422 6.20915 48.5927 6.24262 48.66C6.2737 48.7261 6.28924 48.7809 6.28924 48.8246ZM8.43354 44.6072C8.48135 44.6414 8.51841 44.6861 8.54471 44.7414C8.57339 44.7979 8.58773 44.8521 8.58773 44.9039V44.9285C8.57817 45.035 8.5698 45.1642 8.56264 45.3158C8.55546 45.4673 8.54948 45.6346 8.54471 45.8175C8.53992 45.9977 8.53634 46.1908 8.53395 46.3968C8.53155 46.6001 8.53036 46.8067 8.53036 47.0169C8.53036 47.2268 8.53155 47.4349 8.53395 47.6407C8.53634 47.8466 8.53992 48.0422 8.54471 48.2277C8.54948 48.4104 8.55546 48.5813 8.56264 48.7408C8.5698 48.8974 8.57817 49.0316 8.58773 49.1432V49.1596C8.58773 49.214 8.5722 49.2533 8.54111 49.2774C8.51004 49.3013 8.46462 49.3012 8.40486 49.2768C8.35705 49.2508 8.31522 49.2102 8.27936 49.1553C8.2435 49.0976 8.22198 49.0395 8.21481 48.981C8.20763 48.898 8.20167 48.8047 8.19688 48.7012C8.1921 48.5949 8.18612 48.4785 8.17895 48.3518L3.6465 45.7897C3.63216 46.0165 3.61064 46.2422 3.58196 46.4665C3.57478 46.5173 3.55327 46.5506 3.51741 46.5665C3.48155 46.5796 3.44091 46.5739 3.39549 46.5491C3.33334 46.5071 3.28673 46.4572 3.25565 46.3993C3.22218 46.3402 3.20544 46.2833 3.20544 46.2289V46.2042C3.24369 45.9387 3.27118 45.6699 3.28792 45.398C3.30227 45.1222 3.30943 44.845 3.30943 44.5668C3.30943 44.3977 3.30705 44.2299 3.30227 44.0636C3.29748 43.8975 3.28792 43.7286 3.27358 43.557V43.5407C3.27358 43.478 3.29271 43.4366 3.33096 43.4164C3.36681 43.395 3.41103 43.3986 3.46363 43.4273C3.51144 43.4533 3.55327 43.4952 3.58913 43.5529C3.62259 43.6093 3.64172 43.6675 3.6465 43.7274C3.65368 43.8322 3.66084 43.9384 3.66802 44.0459C3.6728 44.1495 3.67758 44.2545 3.68237 44.3607L8.15744 46.9325V46.8138C8.15744 46.6282 8.15863 46.4448 8.16102 46.2633C8.16342 46.0819 8.167 45.9079 8.17177 45.7414C8.17417 45.5708 8.17776 45.4118 8.18254 45.2643C8.18732 45.1169 8.1933 44.9851 8.20046 44.869L6.7016 43.75C6.65379 43.7159 6.61554 43.6705 6.58686 43.6139C6.55578 43.556 6.54024 43.5026 6.54024 43.4534C6.54024 43.3935 6.56056 43.3528 6.6012 43.3312C6.63944 43.3083 6.68248 43.31 6.73029 43.336C6.73746 43.3399 6.74343 43.3445 6.74822 43.3499C6.753 43.3552 6.75898 43.3598 6.76615 43.3638L8.43354 44.6072ZM3.52817 37.9629C3.57598 37.9889 3.61782 38.0308 3.65367 38.0885C3.68714 38.1449 3.70626 38.2031 3.71105 38.2629C3.72061 38.3691 3.72897 38.4746 3.73614 38.5795C3.74093 38.683 3.74571 38.7892 3.75049 38.8983L8.17177 41.4365C8.17895 41.3368 8.18612 41.2358 8.1933 41.1332C8.20046 41.0281 8.20763 40.9228 8.21481 40.8176C8.22676 40.7613 8.25186 40.7273 8.29011 40.7154C8.32597 40.7022 8.369 40.7093 8.41919 40.7366C8.47179 40.7707 8.51243 40.8174 8.54111 40.8766C8.5722 40.9344 8.58773 40.9906 8.58773 41.0452V41.0616C8.56861 41.2694 8.55427 41.4799 8.54471 41.6929C8.53514 41.9032 8.53036 42.1174 8.53036 42.3356C8.53036 42.5511 8.53514 42.7679 8.54471 42.9859C8.55427 43.2012 8.56861 43.4204 8.58773 43.6436V43.66C8.58773 43.7227 8.5698 43.7648 8.53395 43.7861C8.4957 43.8062 8.45267 43.8033 8.40486 43.7773C8.35705 43.7512 8.31522 43.7107 8.27936 43.6558C8.2435 43.5981 8.22198 43.5399 8.21481 43.4815C8.20763 43.3766 8.20046 43.2718 8.1933 43.167C8.18612 43.0593 8.17895 42.9531 8.17177 42.8483L3.71105 40.3253C3.6967 40.5521 3.67519 40.7777 3.6465 41.0021C3.63933 41.0528 3.61782 41.0861 3.58196 41.102C3.5461 41.1152 3.50665 41.1101 3.46363 41.0867C3.40147 41.0528 3.35486 41.0029 3.32378 40.9368C3.29031 40.8696 3.27358 40.8127 3.27358 40.7664V40.7418C3.30943 40.4722 3.33573 40.2014 3.35247 39.9295C3.36681 39.6563 3.37398 39.3806 3.37398 39.1024C3.37398 38.9332 3.37159 38.7655 3.36681 38.5993C3.36203 38.433 3.35247 38.2641 3.33812 38.0926V38.0763C3.33812 38.0136 3.35724 37.9721 3.39549 37.952C3.43374 37.9319 3.47797 37.9355 3.52817 37.9629ZM7.14265 34.0795C7.40323 34.2214 7.6363 34.4165 7.84189 34.6649C8.04508 34.9119 8.2172 35.1816 8.35824 35.4739C8.4969 35.7649 8.60327 36.0629 8.67738 36.3678C8.75148 36.6701 8.78853 36.9494 8.78853 37.2058C8.78853 37.686 8.71204 38.0875 8.55904 38.4108C8.40605 38.7339 8.18134 38.973 7.88491 39.128L7.97097 39.1749C8.04747 39.2166 8.12277 39.2562 8.19688 39.2938C8.27099 39.3314 8.3451 39.3677 8.41919 39.4026L8.43354 39.4104C8.48135 39.4364 8.52318 39.4783 8.55904 39.536C8.5949 39.591 8.61522 39.6499 8.62001 39.7125C8.62001 39.7752 8.60327 39.818 8.5698 39.8406C8.53634 39.8633 8.4933 39.8631 8.44072 39.8399C8.36422 39.8037 8.28772 39.7661 8.21123 39.7272C8.13233 39.687 8.05464 39.646 7.97814 39.6044C7.73431 39.4716 7.5096 39.3356 7.30401 39.1964C7.09604 39.0558 6.89046 38.9071 6.68725 38.7501C6.64184 38.7118 6.60479 38.667 6.5761 38.6159C6.54742 38.5621 6.53307 38.5093 6.53307 38.4575C6.53307 38.3946 6.55458 38.3545 6.59761 38.337C6.63825 38.3182 6.68009 38.3206 6.72311 38.344C6.7279 38.3466 6.73387 38.3498 6.74105 38.3538C6.74583 38.3564 6.7518 38.3624 6.75898 38.3718C6.81396 38.4153 6.86535 38.4556 6.91316 38.4925C6.95859 38.5255 7.00401 38.5597 7.04942 38.5954C7.09245 38.627 7.13788 38.6599 7.18569 38.6942C7.23111 38.7243 7.2825 38.759 7.33987 38.7985C7.68411 38.6804 7.94946 38.4758 8.13593 38.1844C8.31999 37.8918 8.41203 37.5001 8.41203 37.009C8.41203 36.8699 8.40128 36.7153 8.37975 36.5455C8.35824 36.3727 8.31999 36.2046 8.26501 36.041C8.20763 35.8734 8.13233 35.7205 8.0391 35.5824C7.94348 35.4403 7.82276 35.3296 7.67693 35.2502C7.57415 35.1942 7.48092 35.1748 7.39725 35.192C7.31119 35.208 7.23469 35.2481 7.16776 35.3126C7.10082 35.3771 7.04226 35.4597 6.99205 35.5606C6.93946 35.6575 6.89404 35.7596 6.85579 35.867C6.81754 35.9744 6.78647 36.0802 6.76256 36.1845C6.73627 36.2847 6.71594 36.3719 6.7016 36.446C6.66574 36.62 6.6263 36.791 6.58326 36.9585C6.53785 37.1247 6.48406 37.2768 6.4219 37.4148C6.35976 37.5529 6.28684 37.6727 6.20317 37.7745C6.11951 37.8762 6.02149 37.9511 5.90915 37.9991C5.7944 38.0429 5.66173 38.0552 5.51112 38.0359C5.36051 38.014 5.1872 37.9496 4.99118 37.843C4.79993 37.7388 4.62423 37.6144 4.46407 37.4699C4.30151 37.3215 4.15568 37.1602 4.0266 36.9863C3.89751 36.8123 3.78515 36.6297 3.68953 36.4385C3.59152 36.2433 3.51024 36.0449 3.4457 35.8433C3.37877 35.6405 3.32975 35.4393 3.29868 35.2396C3.26522 35.0358 3.24848 34.8398 3.24848 34.6516C3.24848 34.5371 3.25685 34.4202 3.27358 34.3011C3.28792 34.1779 3.30943 34.0601 3.33812 33.9474C3.36442 33.8336 3.39669 33.7257 3.43493 33.6237C3.47079 33.5178 3.51144 33.424 3.55685 33.3424C3.59989 33.2594 3.6465 33.1906 3.6967 33.1361C3.74451 33.0803 3.79352 33.0415 3.84371 33.0197C3.75288 32.9321 3.66323 32.8424 3.57478 32.7506C3.48395 32.6547 3.3931 32.5575 3.30227 32.459C3.2688 32.4189 3.24369 32.3779 3.22697 32.3362C3.20784 32.2903 3.19828 32.2482 3.19828 32.21C3.19828 32.1472 3.2186 32.1065 3.25923 32.0877C3.29748 32.0676 3.34052 32.0706 3.38833 32.0966C3.41462 32.111 3.44211 32.1341 3.47079 32.1662C3.72897 32.4486 3.98835 32.707 4.24891 32.9417C4.50709 33.1723 4.76886 33.3789 5.03421 33.5616C5.08202 33.5931 5.12146 33.6377 5.15254 33.6956C5.18122 33.7494 5.19557 33.8037 5.19557 33.8581C5.19557 33.9209 5.17524 33.9617 5.13461 33.9805C5.09397 33.9993 5.05333 33.9976 5.01269 33.9755L4.99118 33.9637C4.73777 33.793 4.48797 33.5983 4.24174 33.3797C4.19872 33.3727 4.15329 33.3902 4.10548 33.4324C4.05529 33.4732 4.00748 33.5318 3.96205 33.6079C3.91663 33.6814 3.87361 33.7699 3.83296 33.8732C3.78994 33.9753 3.75288 34.0833 3.72181 34.1973C3.69072 34.3114 3.66563 34.4286 3.6465 34.5491C3.62738 34.6697 3.61782 34.7845 3.61782 34.8936C3.61782 35.06 3.63335 35.2281 3.66444 35.3977C3.69551 35.5675 3.74571 35.7312 3.81503 35.8889C3.88436 36.0441 3.974 36.1883 4.08397 36.3218C4.19154 36.4541 4.32183 36.5632 4.47482 36.6492C4.60869 36.7113 4.72463 36.7334 4.82264 36.7159C4.91826 36.6943 5.00193 36.6498 5.07365 36.5824C5.14536 36.5124 5.20633 36.4229 5.25652 36.3138C5.30434 36.2034 5.34616 36.0885 5.38203 35.9689C5.4155 35.8452 5.44538 35.7237 5.47168 35.6043C5.49558 35.4837 5.51828 35.3747 5.53981 35.2773C5.59718 35.0331 5.66173 34.8049 5.73343 34.593C5.80516 34.3811 5.89958 34.2129 6.01672 34.0885C6.13385 33.9612 6.28326 33.8912 6.46494 33.8782C6.64423 33.864 6.87014 33.9312 7.14265 34.0795ZM3.39549 24.7351C3.46243 24.7715 3.51502 24.8165 3.55327 24.87C3.58913 24.9224 3.61303 24.9749 3.62498 25.0278C3.65128 25.1922 3.67279 25.3484 3.68953 25.4966C3.70626 25.6449 3.71941 25.7912 3.72897 25.9355C3.83655 26.0077 4.01464 26.1252 4.26326 26.2879C4.50948 26.4465 4.81308 26.6364 5.17405 26.8575C5.53263 27.0773 5.94022 27.321 6.39681 27.5887C6.8534 27.8564 7.34465 28.1334 7.87057 28.4198L8.22198 28.6111C8.22198 28.4748 8.22556 28.3416 8.23274 28.212C8.23751 28.0809 8.24588 27.9463 8.25783 27.8082C8.26979 27.752 8.29489 27.7179 8.33314 27.706C8.369 27.6928 8.41322 27.7005 8.46581 27.7292C8.51602 27.762 8.55666 27.8086 8.58773 27.8692C8.6188 27.927 8.63435 27.9832 8.63435 28.0378V28.0542C8.6224 28.2031 8.61283 28.3507 8.60566 28.4968C8.59849 28.643 8.5949 28.7896 8.5949 28.937C8.5949 29.0842 8.59849 29.2322 8.60566 29.3807C8.61283 29.5291 8.6224 29.6763 8.63435 29.8218V29.8506C8.63435 29.9133 8.61522 29.9547 8.57697 29.9747C8.53873 29.9948 8.49569 29.9918 8.44788 29.9659C8.40007 29.9399 8.35824 29.8993 8.32238 29.8443C8.28652 29.7866 8.26501 29.7285 8.25783 29.67C8.25067 29.5625 8.24469 29.4569 8.23991 29.3534C8.23274 29.2485 8.22676 29.143 8.22198 29.0367L7.87057 28.8454C7.34705 28.5604 6.85698 28.2852 6.40039 28.0203C6.41952 28.2544 6.43267 28.4853 6.43983 28.7129C6.44701 28.9405 6.45059 29.1661 6.45059 29.3898C6.45059 29.6163 6.44701 29.8366 6.43983 30.051C6.43267 30.2625 6.41952 30.4682 6.40039 30.6678L8.21481 31.7049C8.22198 31.6052 8.22915 31.504 8.23632 31.4015C8.2435 31.2963 8.25067 31.191 8.25783 31.0858C8.26501 31.0352 8.28652 31.0019 8.32238 30.986C8.35824 30.9673 8.40007 30.971 8.44788 30.997C8.50287 31.0269 8.54709 31.0742 8.58055 31.1389C8.61642 31.2047 8.63435 31.2636 8.63435 31.3154V31.3318C8.61522 31.5397 8.59968 31.7494 8.58773 31.9611C8.57817 32.1714 8.57339 32.3857 8.57339 32.604C8.57339 32.8195 8.57817 33.0361 8.58773 33.2542C8.59968 33.4707 8.61522 33.6906 8.63435 33.9138V33.9302C8.63435 33.9929 8.61522 34.0344 8.57697 34.0545C8.53873 34.0745 8.49569 34.0716 8.44788 34.0455C8.40007 34.0195 8.35824 33.9789 8.32238 33.924C8.28652 33.8663 8.26501 33.8082 8.25783 33.7497C8.25067 33.6449 8.2435 33.54 8.23632 33.4352C8.22915 33.3277 8.22198 33.2215 8.21481 33.1166L3.68953 30.5585C3.67519 30.7852 3.65367 31.0109 3.62498 31.2352C3.61782 31.2859 3.59629 31.3191 3.56045 31.3352C3.52459 31.3484 3.48514 31.3432 3.44211 31.3199C3.37996 31.286 3.33215 31.2353 3.29868 31.1681C3.26522 31.1008 3.24848 31.0439 3.24848 30.9975V30.9729C3.28673 30.7046 3.31422 30.4345 3.33096 30.1627C3.34529 29.8895 3.35247 29.6138 3.35247 29.3355C3.35247 29.1664 3.35008 28.9986 3.34529 28.8324C3.34052 28.6661 3.33096 28.4973 3.31661 28.3257V28.3094C3.31661 28.2548 3.33334 28.2162 3.36681 28.1935C3.39789 28.1667 3.43733 28.1637 3.48514 28.1843C3.5449 28.2168 3.59271 28.2633 3.62857 28.3238C3.66444 28.3815 3.68475 28.439 3.68953 28.4961C3.6967 28.6009 3.70388 28.7057 3.71104 28.8106C3.71821 28.9154 3.7242 29.0224 3.72897 29.1313L6.0203 30.4445C6.04182 30.2543 6.05735 30.0528 6.06691 29.8397C6.07409 29.6254 6.07767 29.4077 6.07767 29.1867C6.07767 28.9576 6.07409 28.7292 6.06691 28.5016C6.05974 28.2712 6.0466 28.0377 6.02747 27.8009C5.74538 27.6364 5.48363 27.4801 5.24218 27.3324C5.00074 27.1818 4.7832 27.0456 4.58957 26.9238C4.39354 26.798 4.22502 26.6899 4.08397 26.5994C3.94054 26.5049 3.82699 26.4295 3.74332 26.373C3.73853 26.4795 3.73256 26.584 3.72539 26.6865C3.71821 26.7863 3.70626 26.8835 3.68953 26.9779C3.68235 27.0259 3.66204 27.0585 3.62857 27.0757C3.59271 27.0889 3.55208 27.0832 3.50665 27.0584C3.44689 27.0259 3.40028 26.9773 3.36681 26.9127C3.33334 26.8454 3.31661 26.7885 3.31661 26.7422V26.7094C3.33573 26.6107 3.34887 26.5087 3.35605 26.4035C3.36322 26.2983 3.36681 26.1885 3.36681 26.0739C3.36681 25.902 3.35724 25.7209 3.33812 25.5304C3.31899 25.3372 3.28911 25.1314 3.24848 24.9128V24.8637C3.24848 24.8119 3.26282 24.7761 3.2915 24.7562C3.3178 24.7324 3.35247 24.7253 3.39549 24.7351Z" fill="white"/>
<path d="M26.6777 72.0671C26.7192 72.1012 26.7509 72.1429 26.7729 72.1918C26.7925 72.2397 26.8021 72.2869 26.8021 72.3332C26.8021 72.3959 26.7815 72.4375 26.7399 72.458C26.6985 72.4783 26.657 72.4783 26.6155 72.4577C26.596 72.4481 26.5765 72.4331 26.5569 72.4125L25.8727 71.8121C25.7751 71.8321 25.6824 71.8694 25.5945 71.9241C25.5043 71.975 25.425 72.0409 25.3567 72.1217C25.2883 72.2025 25.2347 72.2973 25.1957 72.4062C25.1541 72.5139 25.1335 72.6332 25.1335 72.7642C25.1335 73.0124 25.1676 73.2516 25.2359 73.4818C25.3042 73.7092 25.3969 73.9256 25.514 74.1309C25.6312 74.3333 25.7689 74.5256 25.9276 74.7077C26.0837 74.8886 26.2508 75.0558 26.429 75.2093C26.6069 75.3602 26.7911 75.4976 26.9814 75.6217C27.1693 75.7419 27.3547 75.8473 27.5377 75.9378C27.6963 76.0162 27.8659 76.0906 28.0464 76.1607C28.2245 76.2297 28.4038 76.2856 28.5843 76.3286C28.7624 76.3702 28.9344 76.3939 29.1004 76.3996C29.2638 76.404 29.4089 76.3817 29.5357 76.3326C29.6626 76.2808 29.7639 76.1972 29.8395 76.0818C29.9151 75.9664 29.953 75.8078 29.953 75.6059C29.953 75.3687 29.9225 75.1285 29.8615 74.8856C29.8005 74.6399 29.7138 74.4021 29.6016 74.172C29.487 73.9379 29.3503 73.7162 29.1918 73.5068C29.0333 73.2948 28.8564 73.1036 28.6612 72.9334C28.6172 72.898 28.5819 72.8547 28.555 72.8032C28.5258 72.7505 28.5111 72.6997 28.5111 72.6506C28.5111 72.5905 28.5319 72.5503 28.5733 72.5299C28.6149 72.5094 28.66 72.5113 28.7088 72.5355L28.7526 72.5572C28.7575 72.5624 28.782 72.5839 28.8258 72.6221C28.8697 72.6574 28.9271 72.7103 28.9978 72.7807C29.0661 72.8473 29.1455 72.9314 29.2357 73.0334C29.3236 73.1314 29.415 73.2462 29.5102 73.3779C29.6493 73.5721 29.7699 73.7723 29.8725 73.9785C29.9749 74.1847 30.0603 74.3919 30.1287 74.6003C30.197 74.806 30.2482 75.01 30.2823 75.2123C30.3165 75.4148 30.3335 75.6087 30.3335 75.7941C30.3262 76.2571 30.2592 76.6426 30.1323 76.9509C30.003 77.2552 29.8237 77.4803 29.5943 77.626C29.3626 77.7678 29.0845 77.828 28.76 77.8067C28.4356 77.7825 28.0732 77.6716 27.6731 77.4738C27.3023 77.2904 26.9718 77.0833 26.6814 76.8523C26.3911 76.6215 26.1373 76.3773 25.9203 76.1199C25.7006 75.8586 25.5152 75.5882 25.364 75.3088C25.2102 75.0282 25.0858 74.7497 24.9907 74.4735C24.8956 74.1946 24.8273 73.9208 24.7859 73.652C24.7419 73.3821 24.72 73.1271 24.72 72.887C24.72 72.647 24.7431 72.4429 24.7894 72.2749C24.8334 72.1056 24.8907 71.9635 24.9615 71.8485C25.0322 71.7334 25.1103 71.6438 25.1957 71.5796C25.2786 71.5115 25.3579 71.4607 25.4335 71.4272L24.8553 70.9162C24.8139 70.8793 24.781 70.8358 24.7565 70.7855C24.7321 70.7352 24.72 70.6896 24.72 70.6487C24.72 70.5887 24.7406 70.5485 24.7822 70.5281C24.8212 70.5037 24.8651 70.5037 24.9138 70.5277C24.9358 70.5386 24.9566 70.5543 24.9761 70.5749L26.6777 72.0671ZM24.9285 63.4436C24.9968 63.4774 25.0505 63.5204 25.0895 63.5725C25.1261 63.6232 25.1505 63.6748 25.1627 63.7273C25.1896 63.8906 25.2115 64.0461 25.2286 64.1936C25.2457 64.3412 25.2591 64.4869 25.2688 64.6309C25.3787 64.6988 25.5604 64.8092 25.8142 64.9619C26.0653 65.1107 26.3752 65.2885 26.7436 65.4953C27.1095 65.7008 27.5255 65.9283 27.9915 66.1779C28.4575 66.4274 28.9588 66.6849 29.4955 66.9503L29.8541 67.1277C29.8541 66.9914 29.8578 66.8581 29.8651 66.728C29.87 66.5968 29.8786 66.4619 29.8908 66.3234C29.9029 66.2666 29.9286 66.2315 29.9676 66.2181C30.0042 66.2035 30.0493 66.2095 30.103 66.236C30.1542 66.2667 30.1958 66.3119 30.2274 66.3712C30.2591 66.4277 30.275 66.4834 30.275 66.5379V66.5543C30.2629 66.7037 30.2531 66.8517 30.2458 66.9981C30.2384 67.1445 30.2348 67.2914 30.2348 67.4386C30.2348 67.586 30.2384 67.7338 30.2458 67.882C30.2531 68.0302 30.2629 68.1768 30.275 68.322V68.3507C30.275 68.4134 30.2554 68.4555 30.2164 68.4772C30.1774 68.4988 30.1334 68.4976 30.0847 68.4734C30.0359 68.4493 29.9932 68.4104 29.9566 68.3569C29.92 68.3006 29.898 68.2434 29.8908 68.1852C29.8835 68.0779 29.8774 67.9726 29.8725 67.8693C29.8651 67.7646 29.859 67.6594 29.8541 67.5533L29.4955 67.3759C28.9613 67.1117 28.4611 66.8562 27.9952 66.6094C28.0146 66.8427 28.0281 67.073 28.0354 67.3004C28.0427 67.5276 28.0464 67.7531 28.0464 67.9768C28.0464 68.2033 28.0427 68.4238 28.0354 68.6383C28.0281 68.8502 28.0146 69.0564 27.9952 69.2568L29.8468 70.2217C29.8541 70.1217 29.8615 70.0202 29.8688 69.9175C29.8761 69.8119 29.8835 69.7065 29.8908 69.601C29.898 69.55 29.92 69.5159 29.9566 69.4985C29.9932 69.4784 30.0359 69.4804 30.0847 69.5046C30.1408 69.5323 30.186 69.5779 30.2201 69.6411C30.2566 69.7056 30.275 69.7637 30.275 69.8155V69.8319C30.2555 70.0405 30.2396 70.2509 30.2274 70.4631C30.2177 70.6738 30.2128 70.8882 30.2128 71.1065C30.2128 71.3219 30.2177 71.5385 30.2274 71.7562C30.2396 71.9723 30.2555 72.1915 30.275 72.4139V72.4303C30.275 72.493 30.2554 72.5352 30.2164 72.5568C30.1774 72.5785 30.1334 72.5772 30.0847 72.553C30.0359 72.5289 29.9932 72.49 29.9566 72.4365C29.92 72.3803 29.898 72.323 29.8908 72.2649C29.8835 72.1602 29.8761 72.0557 29.8688 71.9512C29.8615 71.8439 29.8541 71.738 29.8468 71.6335L25.2286 69.2552C25.2139 69.4827 25.192 69.7091 25.1627 69.9348C25.1554 69.9857 25.1335 70.0198 25.0968 70.0371C25.0603 70.0519 25.0199 70.0483 24.9761 70.0266C24.9126 69.9952 24.8638 69.9465 24.8297 69.8805C24.7955 69.8146 24.7785 69.7583 24.7785 69.712V69.6874C24.8175 69.4176 24.8455 69.1463 24.8626 68.8738C24.8773 68.6 24.8846 68.3241 24.8846 68.0459C24.8846 67.8767 24.8822 67.7091 24.8773 67.543C24.8724 67.3769 24.8626 67.2084 24.848 67.0375V67.0211C24.848 66.9666 24.8651 66.9273 24.8993 66.9033C24.9309 66.8752 24.9712 66.8706 25.0199 66.8893C25.081 66.9194 25.1298 66.9641 25.1664 67.0231C25.203 67.0794 25.2237 67.136 25.2286 67.193C25.2359 67.2975 25.2432 67.4021 25.2506 67.5066C25.2579 67.6112 25.264 67.7178 25.2688 67.8267L27.6072 69.0486C27.6292 68.8577 27.645 68.6553 27.6548 68.442C27.6621 68.2274 27.6658 68.0096 27.6658 67.7886C27.6658 67.5594 27.6621 67.3313 27.6548 67.1039C27.6475 66.8739 27.6341 66.6408 27.6146 66.4048C27.3267 66.2515 27.0595 66.1057 26.8131 65.9674C26.5667 65.8265 26.3447 65.699 26.1471 65.5849C25.947 65.4669 25.7751 65.3655 25.6312 65.2806C25.4848 65.1919 25.3689 65.1209 25.2835 65.0677C25.2786 65.1744 25.2726 65.2792 25.2651 65.382C25.2579 65.482 25.2457 65.5797 25.2286 65.6748C25.2212 65.7231 25.2006 65.7565 25.1664 65.775C25.1298 65.7896 25.0884 65.7856 25.0419 65.7626C24.9809 65.7324 24.9334 65.6857 24.8993 65.6225C24.8651 65.5564 24.848 65.5003 24.848 65.454V65.4212C24.8675 65.3217 24.881 65.2192 24.8883 65.1137C24.8956 65.0082 24.8993 64.8982 24.8993 64.7837C24.8993 64.6117 24.8895 64.431 24.87 64.2413C24.8504 64.0488 24.82 63.8442 24.7785 63.6273V63.5782C24.7785 63.5264 24.7931 63.4899 24.8224 63.4689C24.8492 63.444 24.8846 63.4356 24.9285 63.4436ZM25.0639 59.8975C25.1127 59.9215 25.1554 59.9618 25.192 60.018C25.2261 60.0732 25.2457 60.1306 25.2506 60.1903C25.2603 60.296 25.2689 60.4011 25.2761 60.5058C25.281 60.6091 25.2859 60.7151 25.2908 60.824L29.8029 63.1864C29.8103 63.0864 29.8176 62.985 29.8249 62.8822C29.8323 62.7767 29.8395 62.6712 29.8468 62.5656C29.859 62.509 29.8847 62.4739 29.9237 62.4605C29.9602 62.4458 30.0042 62.4512 30.0554 62.4766C30.1091 62.5085 30.1506 62.5535 30.1799 62.6117C30.2115 62.6683 30.2274 62.7239 30.2274 62.7785V62.7948C30.2079 63.0034 30.1933 63.2144 30.1835 63.4278C30.1738 63.6385 30.1689 63.853 30.1689 64.0712C30.1689 64.2867 30.1738 64.5033 30.1835 64.7209C30.1933 64.9357 30.2079 65.1544 30.2274 65.3769V65.3933C30.2274 65.456 30.2091 65.4987 30.1725 65.5216C30.1334 65.5431 30.0896 65.5419 30.0408 65.5178C29.992 65.4937 29.9492 65.4548 29.9127 65.4013C29.8761 65.3449 29.8541 65.2877 29.8468 65.2295C29.8395 65.125 29.8323 65.0205 29.8249 64.9158C29.8176 64.8086 29.8103 64.7027 29.8029 64.5981L25.2506 62.2526C25.2359 62.4799 25.2139 62.7064 25.1847 62.932C25.1774 62.983 25.1554 63.0171 25.1188 63.0345C25.0823 63.0491 25.0419 63.0456 24.9981 63.0238C24.9346 62.9924 24.8871 62.9444 24.8553 62.8797C24.8212 62.8136 24.8041 62.7574 24.8041 62.7111V62.6865C24.8406 62.4154 24.8675 62.1436 24.8846 61.8711C24.8993 61.5973 24.9065 61.3214 24.9065 61.0432C24.9065 60.874 24.9042 60.7064 24.8993 60.5402C24.8944 60.3742 24.8846 60.2057 24.87 60.0348V60.0184C24.87 59.9557 24.8895 59.9135 24.9285 59.8918C24.9675 59.8703 25.0127 59.8721 25.0639 59.8975ZM24.8626 52.9685C24.9042 52.989 24.9432 53.0219 24.9797 53.0673C25.0139 53.1087 25.037 53.1557 25.0493 53.2081C25.0713 53.3144 25.0919 53.4188 25.1115 53.5212C25.1286 53.6224 25.1431 53.7237 25.1554 53.8252C25.5409 53.945 25.9154 54.0811 26.2789 54.2336C26.6424 54.3834 27.0022 54.5463 27.3584 54.7224C27.8414 54.9614 28.3075 55.2136 28.7563 55.4793C29.2052 55.7422 29.6456 56.0105 30.0773 56.284C30.1311 56.3269 30.1713 56.3755 30.1981 56.4297C30.2274 56.4824 30.2421 56.5333 30.2421 56.5824C30.2421 56.6751 30.203 56.7199 30.125 56.7167C29.959 56.711 29.7554 56.7154 29.5139 56.7296C29.2699 56.7399 29.0088 56.7594 28.7307 56.7883C28.4501 56.8132 28.1598 56.8442 27.8598 56.8813C27.5597 56.9156 27.2694 56.9522 26.9888 56.9907C26.7083 57.0265 26.446 57.0619 26.202 57.0968C25.9556 57.1304 25.7471 57.1595 25.5762 57.1842L29.8176 59.4045C29.8249 59.3045 29.8323 59.2031 29.8395 59.1003C29.8468 58.9948 29.8541 58.8893 29.8615 58.7838C29.8688 58.7328 29.8908 58.6987 29.9274 58.6814C29.9639 58.6613 30.0067 58.6633 30.0554 58.6874C30.1116 58.7151 30.1567 58.7606 30.1909 58.824C30.225 58.8872 30.2421 58.9447 30.2421 58.9966V59.013C30.2225 59.2215 30.2079 59.4325 30.1981 59.6459C30.1884 59.8566 30.1835 60.0711 30.1835 60.2893C30.1835 60.5048 30.1884 60.7214 30.1981 60.939C30.2079 61.1539 30.2225 61.3725 30.2421 61.595V61.6114C30.2421 61.6713 30.2225 61.7135 30.1835 61.7379C30.1469 61.7606 30.1042 61.76 30.0554 61.7359C30.0067 61.7118 29.9639 61.6729 29.9274 61.6194C29.8908 61.5631 29.8688 61.5058 29.8615 61.4477C29.8541 61.3431 29.8468 61.2386 29.8395 61.134C29.8323 61.0267 29.8249 60.9208 29.8176 60.8162L25.1994 58.4381C25.1847 58.6654 25.1627 58.892 25.1335 59.1175C25.1261 59.1685 25.1041 59.2026 25.0676 59.22C25.0285 59.2334 24.9846 59.2281 24.9358 59.2039C24.8773 59.175 24.8322 59.1282 24.8004 59.0634C24.7663 58.9973 24.7492 58.9412 24.7492 58.8948V58.8703C24.7833 58.5952 24.8102 58.3234 24.8297 58.0549C24.8467 57.7823 24.8553 57.5069 24.8553 57.2287V56.9258C24.8553 56.9231 24.8565 56.9155 24.859 56.9031C24.859 56.8894 24.8614 56.8757 24.8663 56.8618C24.8712 56.845 24.8797 56.8302 24.892 56.8171C24.9042 56.8013 24.9212 56.7907 24.9432 56.7852C24.9603 56.7826 25.0152 56.7744 25.1078 56.7603C25.2006 56.746 25.3213 56.728 25.4701 56.7061C25.619 56.6842 25.7909 56.6602 25.9861 56.6339C26.1812 56.605 26.3899 56.5759 26.6118 56.5466C26.8339 56.5145 27.0644 56.4839 27.3035 56.4548C27.5426 56.4258 27.7817 56.3994 28.0207 56.3758C28.2574 56.3483 28.4892 56.3251 28.7161 56.3064C28.9405 56.2838 29.1504 56.2675 29.3454 56.2576C29.0259 56.0641 28.7014 55.8736 28.372 55.6861C28.0427 55.4987 27.7048 55.3193 27.3584 55.148C27.012 54.9767 26.6583 54.8167 26.2972 54.6682C25.936 54.5196 25.5653 54.3853 25.1847 54.2653C25.1896 54.3032 25.192 54.3385 25.192 54.3713C25.192 54.404 25.192 54.4394 25.192 54.4776C25.192 54.6386 25.1847 54.8027 25.17 54.9701C25.1651 55.0222 25.1445 55.0583 25.1078 55.0784C25.0688 55.0946 25.0248 55.0905 24.9761 55.0665C24.9224 55.0399 24.8773 54.9957 24.8406 54.9341C24.8041 54.8695 24.7859 54.81 24.7859 54.7554V54.7309C24.7955 54.6593 24.8029 54.588 24.8077 54.5167C24.8102 54.4415 24.8114 54.3658 24.8114 54.2894C24.8114 54.1012 24.8004 53.9116 24.7785 53.7207C24.7565 53.5298 24.7249 53.3381 24.6833 53.1457C24.6784 53.1324 24.676 53.1122 24.676 53.0849C24.676 53.0248 24.6955 52.9854 24.7345 52.9665C24.7712 52.9436 24.8139 52.9444 24.8626 52.9685ZM30.0773 50.1461C30.1262 50.1784 30.1652 50.2223 30.1944 50.2776C30.2262 50.3343 30.2421 50.3899 30.2421 50.4444V50.4527C30.1981 51.1647 30.1762 51.87 30.1762 52.5683C30.1762 53.2775 30.1981 53.9718 30.2421 54.6509V54.6714C30.2372 54.7317 30.2177 54.7739 30.1835 54.7979C30.1493 54.822 30.1042 54.8201 30.0481 54.7923C29.9993 54.7683 29.9578 54.7286 29.9237 54.6736C29.8871 54.6173 29.8664 54.5592 29.8615 54.4995C29.8541 54.4086 29.8493 54.319 29.8468 54.2304C29.8419 54.1379 29.837 54.047 29.8323 53.9572L25.3713 51.751C25.3664 51.8359 25.364 51.922 25.364 52.0093C25.364 52.0939 25.364 52.1798 25.364 52.2671C25.3591 52.3219 25.3396 52.3614 25.3055 52.3854C25.2688 52.4082 25.2237 52.4065 25.17 52.3799C25.1164 52.3533 25.0713 52.3091 25.0346 52.2475C24.9956 52.1845 24.9761 52.1244 24.9761 52.0671C24.9809 51.9658 24.9834 51.8675 24.9834 51.7719C24.9834 51.6738 24.9834 51.5769 24.9834 51.4814C24.9834 50.9004 24.9663 50.3163 24.9322 49.7293C24.8981 49.1423 24.8467 48.5482 24.7785 47.9469V47.9102C24.7785 47.8556 24.7955 47.8177 24.8297 47.7963C24.8614 47.7738 24.8993 47.7694 24.9432 47.7829L26.1801 48.2187L26.2057 48.2313C26.2618 48.2591 26.3069 48.3045 26.3411 48.3679C26.3752 48.4283 26.3923 48.4859 26.3923 48.5405C26.3923 48.5924 26.3776 48.6315 26.3484 48.658C26.3166 48.6805 26.2764 48.685 26.2277 48.6718L25.1847 48.3033C25.2237 48.639 25.2555 48.9726 25.2798 49.3038C25.3018 49.6311 25.3201 49.9593 25.3347 50.2885L27.7463 51.4812C27.7439 51.4145 27.7402 51.3254 27.7353 51.2138C27.7304 51.1024 27.7231 50.9813 27.7133 50.8511C27.7037 50.7181 27.6927 50.583 27.6804 50.4461C27.6658 50.3052 27.6487 50.1726 27.6292 50.0484V50.0074C27.6292 49.9502 27.6487 49.9094 27.6878 49.8849C27.7243 49.8594 27.767 49.8587 27.8159 49.8829C27.8646 49.907 27.9061 49.9439 27.9403 49.9935C27.9744 50.0431 27.9976 50.0969 28.0097 50.1547C28.0317 50.291 28.0501 50.4352 28.0647 50.587C28.0793 50.736 28.0915 50.8812 28.1013 51.0225C28.1086 51.1597 28.1147 51.2855 28.1196 51.3997C28.1245 51.5141 28.1282 51.6045 28.1305 51.6711L29.7956 52.4947V52.3801C29.7956 52.0554 29.7993 51.7312 29.8066 51.4075C29.8139 51.0811 29.8274 50.7563 29.8468 50.4331L28.8661 49.8008C28.8173 49.7657 28.7783 49.7219 28.749 49.6692C28.7173 49.6126 28.7014 49.5584 28.7014 49.5065C28.7014 49.441 28.7222 49.3995 28.7636 49.3818C28.8051 49.3614 28.8466 49.3614 28.8881 49.382L28.9174 49.3965L30.0773 50.1461ZM28.7526 43.4635C29.0186 43.5951 29.2564 43.7809 29.4662 44.021C29.6736 44.26 29.8493 44.5229 29.9932 44.8095C30.1348 45.095 30.2433 45.3888 30.319 45.6907C30.3945 45.99 30.4324 46.2679 30.4324 46.5243C30.4324 47.0045 30.3543 47.4092 30.1981 47.7384C30.042 48.0676 29.8127 48.3157 29.5102 48.4826L29.598 48.5259C29.6761 48.5646 29.7529 48.6012 29.8286 48.6359C29.9041 48.6705 29.9798 48.7038 30.0554 48.7358L30.0701 48.7431C30.1189 48.7671 30.1615 48.8074 30.1981 48.8636C30.2348 48.9173 30.2554 48.9752 30.2603 49.0377C30.2603 49.1004 30.2433 49.1438 30.2091 49.1678C30.175 49.1919 30.1311 49.1933 30.0773 49.1723C29.9993 49.1391 29.9212 49.1045 29.8431 49.0687C29.7627 49.0316 29.6834 48.9938 29.6053 48.9551C29.3564 48.832 29.1271 48.705 28.9174 48.5739C28.7051 48.4417 28.4952 48.3011 28.2879 48.1521C28.2416 48.1156 28.2037 48.0724 28.1745 48.0225C28.1452 47.9698 28.1305 47.9175 28.1305 47.8657C28.1305 47.8029 28.1525 47.762 28.1964 47.7427C28.2379 47.7224 28.2806 47.723 28.3245 47.7447C28.3294 47.7471 28.3355 47.7501 28.3428 47.7537C28.3477 47.7562 28.3538 47.762 28.3611 47.771C28.4172 47.8124 28.4697 47.8506 28.5184 47.8857C28.5648 47.9168 28.6112 47.9492 28.6575 47.9831C28.7014 48.013 28.7477 48.044 28.7965 48.0764C28.843 48.1047 28.8954 48.1375 28.9539 48.1747C29.3052 48.0428 29.5761 47.8276 29.7664 47.5289C29.9541 47.229 30.0481 46.8336 30.0481 46.3425C30.0481 46.2034 30.0371 46.0493 30.0151 45.8801C29.9932 45.7083 29.9541 45.5418 29.898 45.3803C29.8395 45.215 29.7627 45.0651 29.6675 44.9308C29.57 44.7925 29.4468 44.6865 29.2979 44.6129C29.193 44.5611 29.0979 44.5454 29.0125 44.5659C28.9246 44.5853 28.8466 44.6285 28.7783 44.6956C28.71 44.7628 28.6502 44.8478 28.599 44.9506C28.5453 45.0496 28.4989 45.1536 28.4599 45.2624C28.4209 45.3713 28.3891 45.4784 28.3648 45.5836C28.3379 45.685 28.3171 45.7729 28.3026 45.8475C28.2659 46.0231 28.2257 46.1955 28.1818 46.3647C28.1354 46.5327 28.0805 46.687 28.0171 46.8275C27.9536 46.968 27.8793 47.0908 27.7939 47.1958C27.7085 47.301 27.6085 47.3797 27.4938 47.4322C27.3767 47.4806 27.2413 47.4982 27.0876 47.485C26.9339 47.4689 26.757 47.4115 26.5569 47.3126C26.3619 47.216 26.1824 47.0986 26.019 46.9606C25.8532 46.8185 25.7043 46.6631 25.5725 46.4943C25.4409 46.3254 25.3262 46.1473 25.2286 45.96C25.1286 45.7686 25.0456 45.5734 24.9797 45.3744C24.9114 45.1743 24.8614 44.9749 24.8297 44.7765C24.7955 44.5741 24.7785 44.3787 24.7785 44.1905C24.7785 44.076 24.787 43.9588 24.8041 43.8391C24.8187 43.7154 24.8406 43.5966 24.87 43.4829C24.8968 43.368 24.9297 43.2588 24.9687 43.1553C25.0054 43.048 25.0468 42.9525 25.0932 42.869C25.1371 42.7843 25.1847 42.7138 25.2359 42.6573C25.2847 42.5996 25.3347 42.5588 25.386 42.5351C25.2932 42.451 25.2018 42.3648 25.1115 42.2766C25.0188 42.1843 24.9261 42.0908 24.8334 41.9958C24.7992 41.9571 24.7736 41.9171 24.7565 41.8759C24.737 41.8308 24.7272 41.7892 24.7272 41.751C24.7272 41.6882 24.748 41.6467 24.7894 41.6263C24.8285 41.6046 24.8724 41.6059 24.9212 41.63C24.9481 41.6433 24.9761 41.6653 25.0054 41.6962C25.2688 41.9683 25.5335 42.2166 25.7995 42.4409C26.0629 42.6611 26.3301 42.8574 26.6009 43.0295C26.6497 43.0591 26.6899 43.1022 26.7217 43.1588C26.7509 43.2115 26.7656 43.2651 26.7656 43.3196C26.7656 43.3825 26.7448 43.424 26.7034 43.4443C26.6619 43.4648 26.6204 43.4647 26.5789 43.4442L26.5569 43.4333C26.2984 43.2728 26.0435 43.0881 25.7922 42.8792C25.7483 42.8738 25.7018 42.8932 25.6531 42.9372C25.6019 42.9801 25.5531 43.0405 25.5068 43.1186C25.4603 43.1938 25.4164 43.2839 25.375 43.3889C25.331 43.4927 25.2932 43.6023 25.2616 43.7174C25.2298 43.8327 25.2041 43.951 25.1847 44.0723C25.1651 44.1935 25.1554 44.3088 25.1554 44.4179C25.1554 44.5843 25.1712 44.7518 25.203 44.9202C25.2347 45.0887 25.2859 45.2504 25.3567 45.4054C25.4274 45.5577 25.5189 45.6984 25.6312 45.8276C25.7409 45.9556 25.8738 46.0595 26.03 46.1394C26.1667 46.1961 26.285 46.2137 26.385 46.1922C26.4826 46.1669 26.5679 46.119 26.6412 46.0488C26.7144 45.9759 26.7766 45.884 26.8278 45.7729C26.8766 45.6606 26.9192 45.544 26.9559 45.4229C26.99 45.2979 27.0205 45.1752 27.0473 45.0549C27.0718 44.9333 27.095 44.8234 27.1169 44.7251C27.1754 44.4785 27.2413 44.2478 27.3145 44.033C27.3877 43.8182 27.484 43.6463 27.6036 43.5173C27.7231 43.3854 27.8756 43.3094 28.0611 43.2893C28.244 43.2679 28.4746 43.3259 28.7526 43.4635ZM30.0773 38.656C30.1262 38.6883 30.1652 38.7321 30.1944 38.7875C30.2262 38.8442 30.2421 38.8997 30.2421 38.9543V38.9625C30.1981 39.6745 30.1762 40.3798 30.1762 41.0781C30.1762 41.7874 30.1981 42.4816 30.2421 43.1607V43.1812C30.2372 43.2415 30.2177 43.2838 30.1835 43.3077C30.1493 43.3318 30.1042 43.3299 30.0481 43.3022C29.9993 43.2781 29.9578 43.2384 29.9237 43.1834C29.8871 43.1271 29.8664 43.0691 29.8615 43.0094C29.8541 42.9184 29.8493 42.8288 29.8468 42.7403C29.8419 42.6479 29.837 42.5568 29.8323 42.4671L25.3713 40.2609C25.3664 40.3458 25.364 40.4319 25.364 40.5191C25.364 40.6037 25.364 40.6896 25.364 40.7769C25.3591 40.8319 25.3396 40.8712 25.3055 40.8953C25.2688 40.9182 25.2237 40.9163 25.17 40.8897C25.1164 40.8632 25.0713 40.819 25.0346 40.7573C24.9956 40.6943 24.9761 40.6342 24.9761 40.577C24.9809 40.4757 24.9834 40.3773 24.9834 40.2819C24.9834 40.1836 24.9834 40.0867 24.9834 39.9913C24.9834 39.4102 24.9663 38.8262 24.9322 38.2391C24.8981 37.6521 24.8467 37.058 24.7785 36.4569V36.42C24.7785 36.3654 24.7955 36.3274 24.8297 36.3061C24.8614 36.2838 24.8993 36.2792 24.9432 36.2927L26.1801 36.7285L26.2057 36.7412C26.2618 36.769 26.3069 36.8145 26.3411 36.8777C26.3752 36.9383 26.3923 36.9958 26.3923 37.0503C26.3923 37.1021 26.3776 37.1413 26.3484 37.1678C26.3166 37.1903 26.2764 37.1949 26.2277 37.1816L25.1847 36.8131C25.2237 37.149 25.2555 37.4825 25.2798 37.8136C25.3018 38.1409 25.3201 38.4692 25.3347 38.7983L27.7463 39.991C27.7439 39.9243 27.7402 39.8352 27.7353 39.7237C27.7304 39.6122 27.7231 39.4912 27.7133 39.3609C27.7037 39.2279 27.6927 39.0928 27.6804 38.9559C27.6658 38.815 27.6487 38.6824 27.6292 38.5582V38.5173C27.6292 38.46 27.6487 38.4192 27.6878 38.3949C27.7243 38.3692 27.767 38.3685 27.8159 38.3927C27.8646 38.4169 27.9061 38.4538 27.9403 38.5033C27.9744 38.553 27.9976 38.6068 28.0097 38.6646C28.0317 38.8009 28.0501 38.945 28.0647 39.0968C28.0793 39.2459 28.0915 39.391 28.1013 39.5323C28.1086 39.6696 28.1147 39.7953 28.1196 39.9097C28.1245 40.0239 28.1282 40.1144 28.1305 40.1811L29.7956 41.0045V40.8899C29.7956 40.5654 29.7993 40.2412 29.8066 39.9174C29.8139 39.591 29.8274 39.2661 29.8468 38.9429L28.8661 38.3106C28.8173 38.2756 28.7783 38.2317 28.749 38.179C28.7173 38.1224 28.7014 38.0683 28.7014 38.0164C28.7014 37.9509 28.7222 37.9093 28.7636 37.8917C28.8051 37.8712 28.8466 37.8713 28.8881 37.8918L28.9174 37.9063L30.0773 38.656Z" fill="white"/>
<path d="M49.7337 42.3861L62.479 37.6707V39.2749L49.7337 43.9904V42.3861ZM48.9496 51.7988L63.2182 46.5198V48.1719L48.9496 53.4509V51.7988ZM50.8088 54.7265L61.7174 50.6905V59.0229L60.0599 59.6361V52.908L52.3992 55.7423V62.5423L50.8088 63.1307V54.7265ZM51.5928 60.3265L60.7318 56.9453V58.5256L51.5928 61.9068V60.3265ZM54.4152 41.2767L56.1176 40.8384C55.5799 44.0302 54.7288 48.2958 54.1688 50.8016L52.4216 51.4481C53.0935 48.7811 53.9448 44.3957 54.4152 41.2767ZM50.5176 46.382L59.8135 42.9428V44.5231L50.5176 47.9623V46.382ZM59.4327 43.0837L59.5894 43.0257L59.8582 42.8304L61.023 42.5193C60.911 44.3804 60.6871 46.6421 60.4855 48.3928L58.8951 48.8615C59.1191 47.0547 59.343 44.6013 59.4327 43.2992V43.0837ZM43.9545 45.4102L45.0521 43.9027C46.2393 44.517 47.7849 45.4776 48.4793 46.2024L47.3593 47.8858C46.6425 47.1214 45.1641 46.0881 43.9545 45.4102ZM42.7673 51.596L46.7768 50.1125V51.8365L42.7673 53.3199V51.596ZM45.9481 64.2107L45.6793 62.6581L46.1721 61.7335L50.1368 57.4412C50.2265 57.8869 50.4504 58.4984 50.6072 58.7997C46.8665 62.9611 46.2617 63.6637 45.9481 64.2107ZM45.9481 64.2107C45.7913 63.8378 45.3657 63.205 45.0745 62.9297C45.4105 62.5659 45.8809 61.8652 45.8809 60.8835V50.444L47.4712 49.8556V61.8753C47.4712 61.8753 45.9481 63.5642 45.9481 64.2107Z" fill="white"/>
<path d="M100.925 46.6878C100.896 46.7872 100.841 46.8631 100.759 46.9158C100.677 46.9625 100.587 46.986 100.488 46.986C100.354 46.986 100.243 46.9363 100.156 46.8369C100.068 46.7376 100.025 46.6381 100.025 46.5387C100.025 46.492 100.036 46.4452 100.06 46.3984L100.619 44.7587C100.473 44.5249 100.296 44.3028 100.086 44.0924C99.8817 43.8761 99.6573 43.6861 99.4125 43.5224C99.1677 43.3587 98.9083 43.2302 98.6343 43.1366C98.3603 43.0372 98.0835 42.9875 97.8037 42.9875C97.2733 42.9875 96.7982 43.0694 96.3786 43.233C95.9647 43.3967 95.6004 43.6189 95.2856 43.8994C94.9766 44.18 94.7115 44.5103 94.4899 44.8903C94.2685 45.2644 94.0877 45.6649 93.9478 46.0916C93.8138 46.5182 93.7147 46.9596 93.6506 47.4156C93.5923 47.8657 93.5632 48.3099 93.5632 48.7483C93.5632 49.1283 93.5836 49.5347 93.6243 49.9672C93.6651 50.394 93.7351 50.8235 93.8342 51.2562C93.9333 51.6829 94.0645 52.095 94.2277 52.4925C94.3908 52.8841 94.592 53.232 94.831 53.536C95.0758 53.84 95.3614 54.0825 95.6877 54.2638C96.0142 54.4449 96.3931 54.5355 96.8245 54.5355C97.3316 54.5355 97.8124 54.4625 98.2671 54.3163C98.7276 54.1701 99.1444 53.9627 99.5175 53.6938C99.8963 53.419 100.226 53.0917 100.505 52.7117C100.791 52.3318 101.013 51.908 101.17 51.4403C101.199 51.3351 101.254 51.2503 101.336 51.1861C101.418 51.1159 101.511 51.0808 101.616 51.0808C101.744 51.0808 101.852 51.1305 101.939 51.2299C102.027 51.3292 102.07 51.4373 102.07 51.5543V51.6595C102.065 51.6712 102.044 51.7297 102.009 51.8349C101.98 51.9402 101.928 52.0775 101.852 52.247C101.782 52.4107 101.686 52.6006 101.563 52.817C101.447 53.0274 101.298 53.2466 101.117 53.4746C100.849 53.8078 100.549 54.0971 100.217 54.3427C99.8847 54.5882 99.532 54.7928 99.159 54.9565C98.7917 55.1201 98.4099 55.2428 98.0136 55.3247C97.6172 55.4066 97.2208 55.4474 96.8245 55.4474C95.8277 55.4299 94.9329 55.2692 94.1403 54.9652C93.3533 54.6554 92.683 54.2257 92.1293 53.6762C91.5813 53.1209 91.1587 52.4545 90.8615 51.677C90.57 50.8996 90.4243 50.0315 90.4243 49.0728C90.4243 48.1842 90.5175 47.3922 90.704 46.6966C90.8906 46.0009 91.1442 45.393 91.4648 44.8727C91.7912 44.3467 92.1729 43.9024 92.6101 43.54C93.0473 43.1716 93.5107 42.8735 94.0004 42.6456C94.4958 42.4176 95.0087 42.2539 95.5391 42.1545C96.0696 42.0493 96.5913 41.9967 97.1043 41.9967C97.6172 41.9967 98.0777 42.0523 98.4857 42.1634C98.8937 42.2685 99.2581 42.4059 99.5786 42.5754C99.8992 42.745 100.173 42.932 100.4 43.1366C100.634 43.3354 100.826 43.5253 100.978 43.7065L101.458 42.3212C101.493 42.2218 101.552 42.1429 101.633 42.0843C101.715 42.0259 101.799 41.9967 101.887 41.9967C102.015 41.9967 102.123 42.0464 102.21 42.1458C102.304 42.2393 102.35 42.3445 102.35 42.4615C102.35 42.514 102.339 42.5637 102.315 42.6105L100.925 46.6878ZM117.503 42.4965C117.503 42.6602 117.468 42.7888 117.398 42.8823C117.328 42.97 117.243 43.0284 117.144 43.0577C116.823 43.1219 116.515 43.1746 116.217 43.2156C115.92 43.2564 115.623 43.2886 115.325 43.3119C115.296 43.575 115.253 44.0105 115.194 44.6184C115.142 45.2206 115.089 45.963 115.037 46.8457C114.985 47.7225 114.938 48.7191 114.897 49.8356C114.856 50.9522 114.836 52.1535 114.836 53.4395V54.2988C115.127 54.2988 115.416 54.3076 115.701 54.3251C115.987 54.3368 116.284 54.3573 116.593 54.3865C116.727 54.4157 116.829 54.4771 116.899 54.5706C116.969 54.6584 117.004 54.7665 117.004 54.895C116.993 55.0179 116.94 55.1172 116.847 55.1931C116.759 55.2692 116.657 55.3072 116.541 55.3072H116.506C116.174 55.2779 115.847 55.2546 115.527 55.2371C115.206 55.2195 114.888 55.2107 114.574 55.2107C114.259 55.2107 113.947 55.2195 113.638 55.2371C113.329 55.2546 113.026 55.2779 112.729 55.3072H112.668C112.533 55.3072 112.423 55.2604 112.335 55.1669C112.248 55.0733 112.204 54.9682 112.204 54.8512C112.204 54.7343 112.242 54.632 112.318 54.5443C112.399 54.4566 112.498 54.4041 112.615 54.3865C112.837 54.369 113.055 54.3544 113.271 54.3427C113.486 54.3251 113.705 54.3105 113.927 54.2988V53.4395C113.927 52.1594 113.944 50.961 113.979 49.8445C113.501 49.8912 113.023 49.9234 112.545 49.9409C112.067 49.9585 111.589 49.9672 111.111 49.9672C110.627 49.9672 110.152 49.9585 109.686 49.9409C109.226 49.9234 108.771 49.8912 108.322 49.8445L108.217 54.2812C108.439 54.2988 108.663 54.3163 108.89 54.3339C109.123 54.3514 109.357 54.369 109.59 54.3865C109.706 54.4041 109.803 54.4566 109.878 54.5443C109.96 54.632 110.001 54.7343 110.001 54.8512C110.001 54.9857 109.951 55.0938 109.852 55.1757C109.753 55.2633 109.648 55.3072 109.537 55.3072H109.502C109.036 55.2604 108.57 55.2225 108.103 55.1931C107.643 55.1698 107.18 55.1581 106.713 55.1581C106.253 55.1581 105.795 55.1698 105.341 55.1931C104.892 55.2225 104.44 55.2604 103.985 55.3072H103.95C103.816 55.3072 103.706 55.2604 103.618 55.1669C103.531 55.0733 103.487 54.9682 103.487 54.8512C103.487 54.7343 103.525 54.632 103.601 54.5443C103.682 54.4566 103.781 54.4041 103.898 54.3865C104.114 54.369 104.329 54.3514 104.545 54.3339C104.766 54.3163 104.985 54.2988 105.201 54.2812L105.402 43.2156C104.9 43.1805 104.393 43.1278 103.88 43.0577C103.764 43.0402 103.668 42.9875 103.592 42.8999C103.522 42.8121 103.487 42.7157 103.487 42.6105C103.487 42.4585 103.539 42.3416 103.644 42.2597C103.749 42.178 103.851 42.137 103.95 42.137H104.003C104.621 42.2305 105.23 42.2978 105.83 42.3386C106.431 42.3737 107.028 42.3913 107.623 42.3913C107.984 42.3913 108.34 42.3854 108.689 42.3737C109.039 42.3621 109.389 42.3386 109.738 42.3036H109.773C109.89 42.3036 109.992 42.3445 110.079 42.4264C110.173 42.5024 110.225 42.5988 110.237 42.7157C110.237 42.8618 110.193 42.9788 110.106 43.0664C110.024 43.1541 109.925 43.2038 109.808 43.2156C109.593 43.233 109.377 43.2506 109.161 43.2681C108.946 43.2856 108.724 43.3003 108.497 43.3119L108.357 48.915C108.788 48.9675 109.237 49.0056 109.704 49.029C110.17 49.0466 110.639 49.0553 111.111 49.0553C111.601 49.0553 112.085 49.0466 112.563 49.029C113.046 49.0115 113.53 48.9793 114.014 48.9325C114.037 48.2428 114.066 47.6026 114.101 47.0122C114.142 46.4219 114.18 45.8898 114.215 45.4163C114.256 44.937 114.291 44.5249 114.32 44.18C114.355 43.8294 114.384 43.5516 114.407 43.347C114.174 43.3354 113.944 43.3207 113.717 43.3032C113.495 43.2856 113.274 43.2564 113.052 43.2156C112.941 43.198 112.848 43.1483 112.772 43.0664C112.702 42.9788 112.668 42.8794 112.668 42.7683C112.668 42.6222 112.717 42.5081 112.816 42.4264C112.921 42.3445 113.023 42.3036 113.122 42.3036H113.192C113.425 42.3504 113.658 42.3826 113.892 42.4C114.125 42.4176 114.364 42.4264 114.609 42.4264C114.976 42.4264 115.352 42.4029 115.736 42.3562C116.127 42.3094 116.532 42.2364 116.952 42.137H117.057C117.167 42.137 117.261 42.1721 117.336 42.2423C117.418 42.3065 117.474 42.3913 117.503 42.4965ZM125.222 42.821C125.222 42.9378 125.182 43.0402 125.101 43.1278C125.02 43.2097 124.917 43.2564 124.795 43.2681C124.579 43.2915 124.363 43.3119 124.148 43.3295C123.932 43.3412 123.71 43.3529 123.483 43.3646L123.204 54.176C123.425 54.1936 123.649 54.2111 123.877 54.2287C124.11 54.2462 124.343 54.2638 124.575 54.2812C124.71 54.3105 124.812 54.3719 124.882 54.4654C124.951 54.5531 124.987 54.6584 124.987 54.7811C124.975 54.9097 124.923 55.009 124.83 55.0792C124.743 55.1552 124.64 55.1931 124.524 55.1931H124.488C124.023 55.1465 123.556 55.1114 123.089 55.0879C122.63 55.0646 122.165 55.053 121.7 55.053C121.239 55.053 120.782 55.0646 120.327 55.0879C119.878 55.1114 119.427 55.1465 118.971 55.1931H118.936C118.802 55.1931 118.692 55.1493 118.604 55.0617C118.517 54.9682 118.473 54.863 118.473 54.746C118.473 54.629 118.511 54.5268 118.587 54.4392C118.668 54.3514 118.767 54.2988 118.884 54.2812C119.1 54.2638 119.315 54.2462 119.531 54.2287C119.753 54.2111 119.971 54.1936 120.187 54.176L120.388 43.2681C119.886 43.233 119.379 43.1805 118.867 43.1103C118.75 43.0927 118.654 43.0402 118.578 42.9524C118.508 42.8648 118.473 42.7683 118.473 42.6631C118.473 42.5111 118.526 42.3972 118.631 42.3212C118.735 42.2393 118.837 42.1983 118.936 42.1983H118.989C119.607 42.2861 120.216 42.3504 120.816 42.3913C121.417 42.4264 122.014 42.4439 122.609 42.4439C122.97 42.4439 123.326 42.438 123.675 42.4264C124.025 42.4146 124.375 42.3913 124.725 42.3562H124.759C124.894 42.3562 125.004 42.4029 125.092 42.4965C125.18 42.59 125.222 42.6981 125.222 42.821ZM139.816 42.3386C139.816 42.438 139.786 42.5316 139.728 42.6193C139.675 42.7011 139.6 42.7567 139.501 42.7859C139.297 42.8385 139.096 42.8881 138.898 42.9349C138.7 42.9759 138.498 43.011 138.294 43.0402C138.446 43.9638 138.551 44.8611 138.609 45.732C138.674 46.603 138.705 47.4653 138.705 48.3188C138.705 49.4761 138.658 50.5927 138.565 51.6683C138.478 52.7438 138.371 53.799 138.242 54.8336C138.207 54.9623 138.146 55.0587 138.058 55.123C137.977 55.1931 137.884 55.2282 137.779 55.2282C137.58 55.2282 137.443 55.1347 137.368 54.9477C137.204 54.5501 136.98 54.062 136.695 53.4833C136.414 52.8987 136.096 52.2733 135.741 51.6069C135.392 50.9346 135.019 50.2391 134.622 49.5201C134.232 48.801 133.847 48.1053 133.468 47.4331C133.095 46.7609 132.742 46.1325 132.41 45.5479C132.078 44.9575 131.795 44.4578 131.563 44.0486L131.3 54.2111C131.521 54.2287 131.745 54.2462 131.973 54.2638C132.206 54.2812 132.439 54.2988 132.673 54.3163C132.789 54.3339 132.885 54.3865 132.96 54.4742C133.043 54.5619 133.083 54.6641 133.083 54.7811C133.083 54.9155 133.033 55.0236 132.934 55.1055C132.835 55.1874 132.731 55.2282 132.62 55.2282H132.584C132.119 55.1815 131.652 55.1465 131.187 55.123C130.726 55.0996 130.263 55.0879 129.796 55.0879C129.335 55.0879 128.878 55.0996 128.423 55.123C127.974 55.1465 127.523 55.1815 127.068 55.2282H127.033C126.904 55.2282 126.793 55.1815 126.7 55.0879C126.613 55.0003 126.569 54.898 126.569 54.7811C126.569 54.6641 126.607 54.5619 126.684 54.4742C126.765 54.3865 126.864 54.3339 126.981 54.3163C127.196 54.2988 127.412 54.2812 127.628 54.2638C127.849 54.2462 128.067 54.2287 128.283 54.2111L128.484 43.1454C127.982 43.1103 127.476 43.0577 126.963 42.9875C126.846 42.97 126.75 42.9173 126.674 42.8297C126.605 42.7362 126.569 42.631 126.569 42.514C126.569 42.3737 126.622 42.2656 126.727 42.1896C126.832 42.1078 126.934 42.0669 127.033 42.0669H127.086C127.709 42.1486 128.318 42.213 128.912 42.2597C129.513 42.3007 130.111 42.3212 130.705 42.3212H131.352C131.358 42.3212 131.375 42.324 131.405 42.3299C131.434 42.3299 131.466 42.3358 131.5 42.3475C131.541 42.3591 131.583 42.3796 131.623 42.4088C131.67 42.438 131.711 42.4789 131.745 42.5316C131.769 42.5724 131.844 42.704 131.973 42.9262C132.101 43.1483 132.267 43.4376 132.471 43.7943C132.675 44.1508 132.908 44.5629 133.171 45.0306C133.439 45.4982 133.722 45.9981 134.019 46.53C134.323 47.0619 134.631 47.6144 134.946 48.1872C135.261 48.7601 135.569 49.3329 135.872 49.9058C136.181 50.4729 136.476 51.0281 136.755 51.5718C137.041 52.1097 137.297 52.6124 137.525 53.08C137.601 52.3143 137.665 51.5367 137.718 50.7476C137.77 49.9585 137.796 49.1488 137.796 48.3188C137.796 47.4887 137.764 46.6411 137.7 45.7759C137.635 44.9108 137.531 44.0222 137.385 43.1103C137.309 43.1219 137.237 43.1278 137.166 43.1278C137.097 43.1278 137.02 43.1278 136.939 43.1278C136.595 43.1278 136.237 43.1103 135.864 43.0753C135.747 43.0635 135.648 43.0138 135.566 42.9262C135.491 42.8326 135.453 42.7274 135.453 42.6105C135.453 42.4819 135.5 42.3737 135.593 42.2861C135.692 42.1983 135.799 42.1545 135.916 42.1545H135.969C136.132 42.178 136.292 42.1954 136.45 42.2072C136.612 42.213 136.776 42.2159 136.939 42.2159C137.342 42.2159 137.734 42.1896 138.12 42.137C138.504 42.0843 138.88 42.0084 139.248 41.909C139.271 41.8973 139.311 41.8915 139.37 41.8915C139.498 41.8915 139.603 41.9383 139.685 42.0318C139.772 42.1194 139.816 42.2218 139.816 42.3386ZM153.805 49.5726C153.758 49.5726 153.73 49.5667 153.718 49.5551C153.414 49.5025 153.126 49.4674 152.852 49.4499C152.584 49.4264 152.319 49.409 152.056 49.3972C152.272 49.6486 152.453 49.9555 152.599 50.318C152.751 50.6745 152.826 51.0983 152.826 51.5894C152.826 52.057 152.753 52.4808 152.607 52.8608C152.468 53.2349 152.276 53.5711 152.031 53.8692C151.785 54.1614 151.497 54.4157 151.164 54.632C150.838 54.8425 150.489 55.0179 150.116 55.1581C149.748 55.2984 149.366 55.4007 148.97 55.465C148.574 55.5352 148.186 55.5703 147.807 55.5703C146.817 55.541 145.931 55.3744 145.149 55.0704C144.368 54.7606 143.703 54.3281 143.155 53.7727C142.607 53.2173 142.188 52.5451 141.897 51.7559C141.61 50.9668 141.468 50.0724 141.468 49.0728C141.468 48.1842 141.562 47.3952 141.748 46.7054C141.934 46.0097 142.188 45.4017 142.508 44.8816C142.835 44.3554 143.217 43.9141 143.654 43.5575C144.091 43.1951 144.554 42.9027 145.044 42.6807C145.54 42.4526 146.053 42.2889 146.584 42.1896C147.114 42.0843 147.635 42.0318 148.149 42.0318C148.661 42.0318 149.122 42.0873 149.53 42.1983C149.938 42.3036 150.302 42.438 150.622 42.6018C150.943 42.7654 151.217 42.9495 151.445 43.1541C151.678 43.3529 151.87 43.5429 152.021 43.7241L152.502 42.3386C152.537 42.2451 152.596 42.1721 152.678 42.1194C152.759 42.061 152.844 42.0318 152.931 42.0318C153.077 42.0318 153.19 42.0843 153.272 42.1896C153.354 42.2889 153.394 42.3913 153.394 42.4965C153.394 42.514 153.392 42.5374 153.386 42.5667C153.38 42.59 153.371 42.6164 153.36 42.6456L151.969 46.7228C151.94 46.8106 151.884 46.8836 151.803 46.942C151.722 46.9947 151.631 47.0211 151.532 47.0211C151.398 47.0211 151.287 46.9742 151.2 46.8807C151.112 46.7814 151.069 46.6731 151.069 46.5563C151.069 46.5387 151.071 46.5182 151.077 46.4949C151.083 46.4715 151.091 46.4452 151.103 46.416L151.663 44.7763C151.518 44.5483 151.34 44.3291 151.13 44.1187C150.925 43.9024 150.699 43.7124 150.448 43.5487C150.203 43.3851 149.943 43.2535 149.67 43.1541C149.395 43.0548 149.122 43.0051 148.848 43.0051C148.149 43.0051 147.53 43.157 146.994 43.461C146.458 43.7592 146.006 44.1713 145.639 44.6973C145.278 45.2176 145.003 45.8255 144.817 46.5212C144.631 47.2168 144.538 47.9593 144.538 48.7483C144.538 49.0991 144.558 49.4878 144.598 49.9146C144.645 50.3413 144.718 50.7739 144.817 51.2123C144.922 51.6508 145.056 52.0746 145.219 52.4838C145.389 52.893 145.595 53.2583 145.84 53.5798C146.085 53.9013 146.37 54.1585 146.697 54.3514C147.023 54.5443 147.399 54.6408 147.825 54.6408C148.536 54.6408 149.148 54.5531 149.661 54.3777C150.173 54.2024 150.594 53.9714 150.919 53.6851C151.253 53.3986 151.497 53.0713 151.655 52.703C151.811 52.3346 151.89 51.9576 151.89 51.5718C151.89 51.2327 151.843 50.9405 151.75 50.695C151.657 50.4437 151.546 50.2361 151.418 50.0724C151.29 49.9029 151.159 49.7713 151.025 49.6778C150.891 49.5843 150.786 49.5201 150.711 49.485C150.401 49.5259 150.124 49.5785 149.88 49.6428C149.641 49.7071 149.437 49.7685 149.267 49.8269C149.104 49.8853 148.976 49.938 148.883 49.9848C148.796 50.0256 148.748 50.0461 148.743 50.0461C148.679 50.0929 148.606 50.1163 148.525 50.1163C148.39 50.1163 148.279 50.0696 148.192 49.9759C148.105 49.8766 148.06 49.7685 148.06 49.6515C148.06 49.482 148.139 49.3475 148.297 49.2482C148.315 49.2423 148.408 49.1985 148.576 49.1167C148.746 49.0348 148.982 48.9472 149.285 48.8536C149.593 48.7542 149.967 48.6666 150.404 48.5906C150.847 48.5145 151.348 48.4766 151.908 48.4766C152.508 48.4766 153.167 48.538 153.884 48.6607C153.989 48.6782 154.076 48.7309 154.146 48.8185C154.221 48.9004 154.26 48.9969 154.26 49.1079C154.26 49.2599 154.207 49.3767 154.102 49.4586C153.997 49.5347 153.898 49.5726 153.805 49.5726ZM165.312 54.8162C165.294 54.9331 165.241 55.0236 165.154 55.0879C165.067 55.1581 164.968 55.1931 164.857 55.1931H164.804C164.565 55.1698 164.28 55.1493 163.947 55.1318C163.615 55.1142 163.251 55.0996 162.855 55.0879C162.464 55.0763 162.048 55.0676 161.605 55.0617C161.167 55.0558 160.724 55.053 160.275 55.053C159.826 55.053 159.383 55.0558 158.946 55.0617C158.509 55.0676 158.095 55.0763 157.705 55.0879C157.32 55.0996 156.961 55.1142 156.629 55.1318C156.303 55.1493 156.026 55.1698 155.798 55.1931H155.764C155.647 55.1931 155.545 55.1552 155.458 55.0792C155.37 55.0032 155.317 54.8922 155.301 54.746C155.301 54.629 155.339 54.5268 155.414 54.4392C155.495 54.3514 155.594 54.2988 155.711 54.2812C155.881 54.2638 156.073 54.2492 156.288 54.2374C156.51 54.2257 156.752 54.2111 157.014 54.1936L157.215 43.1103C156.714 43.0753 156.207 43.0226 155.693 42.9524C155.578 42.9349 155.481 42.8823 155.406 42.7946C155.335 42.707 155.301 42.6075 155.301 42.4965C155.317 42.3445 155.37 42.2305 155.458 42.1545C155.545 42.0727 155.647 42.0318 155.764 42.0318H155.816C156.429 42.1253 157.034 42.1926 157.634 42.2334C158.241 42.2685 158.841 42.2861 159.436 42.2861C159.798 42.2861 160.153 42.2802 160.503 42.2685C160.853 42.2569 161.203 42.2334 161.552 42.1983H161.587C161.721 42.1983 161.832 42.2451 161.919 42.3386C162.006 42.4264 162.05 42.5345 162.05 42.6631C162.05 42.78 162.01 42.8823 161.928 42.97C161.846 43.0518 161.745 43.0986 161.622 43.1103C161.407 43.1278 161.187 43.1454 160.966 43.1629C160.75 43.1746 160.532 43.1862 160.311 43.198L160.022 54.1409H160.275C160.671 54.1409 161.065 54.1439 161.456 54.1498C161.846 54.1555 162.222 54.1644 162.584 54.176C162.95 54.1819 163.295 54.1906 163.615 54.2024C163.936 54.2141 164.224 54.2287 164.481 54.2462L165.128 50.581C165.146 50.464 165.198 50.3705 165.285 50.3004C165.372 50.2244 165.469 50.1864 165.574 50.1864C165.702 50.1864 165.813 50.2361 165.906 50.3355C165.999 50.429 166.046 50.5342 166.046 50.6512C166.046 50.6686 166.043 50.6832 166.037 50.695C166.031 50.7067 166.029 50.7213 166.029 50.7388L165.312 54.8162ZM173.802 42.821C173.802 42.9378 173.761 43.0402 173.679 43.1278C173.597 43.2097 173.495 43.2564 173.373 43.2681C173.157 43.2915 172.942 43.3119 172.726 43.3295C172.51 43.3412 172.289 43.3529 172.061 43.3646L171.782 54.176C172.003 54.1936 172.227 54.2111 172.455 54.2287C172.688 54.2462 172.922 54.2638 173.155 54.2812C173.288 54.3105 173.391 54.3719 173.46 54.4654C173.531 54.5531 173.565 54.6584 173.565 54.7811C173.553 54.9097 173.501 55.009 173.408 55.0792C173.321 55.1552 173.219 55.1931 173.102 55.1931H173.067C172.601 55.1465 172.134 55.1114 171.668 55.0879C171.208 55.0646 170.744 55.053 170.278 55.053C169.817 55.053 169.36 55.0646 168.905 55.0879C168.456 55.1114 168.005 55.1465 167.55 55.1931H167.515C167.38 55.1931 167.271 55.1493 167.182 55.0617C167.095 54.9682 167.052 54.863 167.052 54.746C167.052 54.629 167.089 54.5268 167.165 54.4392C167.247 54.3514 167.346 54.2988 167.463 54.2812C167.678 54.2638 167.894 54.2462 168.11 54.2287C168.331 54.2111 168.549 54.1936 168.765 54.176L168.967 43.2681C168.465 43.233 167.958 43.1805 167.445 43.1103C167.328 43.0927 167.232 43.0402 167.156 42.9524C167.087 42.8648 167.052 42.7683 167.052 42.6631C167.052 42.5111 167.103 42.3972 167.208 42.3212C167.313 42.2393 167.416 42.1983 167.515 42.1983H167.568C168.185 42.2861 168.794 42.3504 169.394 42.3913C169.995 42.4264 170.593 42.4439 171.187 42.4439C171.549 42.4439 171.904 42.438 172.253 42.4264C172.603 42.4146 172.953 42.3913 173.303 42.3562H173.338C173.472 42.3562 173.583 42.4029 173.67 42.4965C173.757 42.59 173.802 42.6981 173.802 42.821ZM186.304 51.6595C186.304 52.2967 186.158 52.8667 185.867 53.3694C185.576 53.8662 185.2 54.2871 184.739 54.632C184.279 54.9711 183.766 55.2312 183.2 55.4123C182.641 55.5936 182.088 55.6842 181.54 55.6842C180.513 55.6842 179.566 55.4971 178.697 55.123C177.829 54.7489 177.057 54.1995 176.38 53.4746V53.6851C176.38 53.8721 176.384 54.0562 176.39 54.2374C176.396 54.4187 176.404 54.5998 176.416 54.7811V54.8162C176.416 54.9331 176.375 55.0354 176.293 55.123C176.218 55.2107 176.115 55.2604 175.987 55.2722C175.854 55.2722 175.743 55.2312 175.656 55.1493C175.567 55.0676 175.518 54.9623 175.506 54.8336C175.494 54.6466 175.486 54.4595 175.48 54.2725C175.474 54.0796 175.472 53.8896 175.472 53.7025C175.472 53.1063 175.5 52.5568 175.559 52.0541C175.617 51.5456 175.696 51.0427 175.795 50.5459C175.824 50.4348 175.876 50.3442 175.953 50.2742C176.034 50.204 176.131 50.1689 176.24 50.1689C176.375 50.1689 176.485 50.2215 176.574 50.3267C176.661 50.4261 176.704 50.5284 176.704 50.6336C176.704 50.6453 176.704 50.6599 176.704 50.6775C176.704 50.6891 176.699 50.7037 176.687 50.7213C176.657 50.8557 176.631 50.9815 176.608 51.0983C176.59 51.2094 176.57 51.3205 176.547 51.4315C176.529 51.5367 176.511 51.6478 176.495 51.7648C176.483 51.8757 176.468 52.0015 176.451 52.1418C177.104 52.9835 177.85 53.6324 178.689 54.0884C179.528 54.5385 180.472 54.7636 181.522 54.7636C181.819 54.7636 182.136 54.7373 182.474 54.6846C182.819 54.632 183.133 54.5385 183.419 54.4041C183.711 54.2638 183.95 54.0796 184.136 53.8516C184.328 53.6178 184.425 53.3225 184.425 52.966C184.425 52.7146 184.358 52.4867 184.223 52.2821C184.089 52.0716 183.914 51.8846 183.699 51.7208C183.483 51.5572 183.238 51.414 182.965 51.2913C182.696 51.1626 182.425 51.0516 182.151 50.958C181.877 50.8645 181.615 50.7885 181.364 50.73C181.119 50.6658 180.909 50.6161 180.735 50.581C180.321 50.4934 179.91 50.3969 179.502 50.2916C179.094 50.1805 178.707 50.0491 178.339 49.897C177.971 49.7451 177.631 49.5667 177.316 49.3621C177.001 49.1575 176.728 48.9179 176.495 48.6431C176.267 48.3626 176.086 48.0382 175.953 47.6699C175.824 47.3016 175.759 46.8778 175.759 46.3984C175.759 45.9308 175.821 45.5011 175.943 45.1095C176.072 44.712 176.246 44.3554 176.468 44.0397C176.689 43.7241 176.95 43.4494 177.247 43.2156C177.549 42.9759 177.878 42.777 178.234 42.6193C178.59 42.4556 178.963 42.3358 179.354 42.2597C179.75 42.178 180.149 42.137 180.551 42.137C180.796 42.137 181.055 42.1575 181.329 42.1983C181.609 42.2334 181.886 42.2861 182.16 42.3562C182.434 42.4205 182.702 42.4994 182.965 42.5929C183.232 42.6807 183.481 42.78 183.707 42.8911C183.935 42.9964 184.136 43.1103 184.312 43.233C184.486 43.35 184.625 43.4698 184.731 43.5926C184.812 43.3705 184.9 43.1512 184.993 42.9349C185.092 42.7127 185.194 42.4907 185.299 42.2685C185.345 42.1867 185.404 42.1253 185.474 42.0843C185.549 42.0377 185.628 42.0142 185.709 42.0142C185.844 42.0142 185.954 42.0639 186.042 42.1634C186.13 42.2569 186.174 42.3621 186.174 42.4789C186.174 42.5432 186.156 42.6105 186.121 42.6807C185.818 43.3119 185.567 43.9462 185.369 44.5833C185.177 45.2147 185.04 45.8548 184.959 46.5036C184.947 46.6206 184.896 46.7171 184.809 46.793C184.728 46.8631 184.629 46.8982 184.512 46.8982C184.378 46.8982 184.267 46.8485 184.18 46.7492C184.092 46.6498 184.049 46.5504 184.049 46.4511V46.3984C184.118 45.7789 184.243 45.1679 184.425 44.5659C184.389 44.4606 184.3 44.3495 184.154 44.2327C184.008 44.1099 183.827 43.993 183.612 43.8819C183.402 43.7708 183.163 43.6656 182.895 43.5662C182.626 43.461 182.353 43.3705 182.073 43.2945C181.793 43.2184 181.513 43.157 181.233 43.1103C180.953 43.0635 180.697 43.0402 180.464 43.0402C180.108 43.0402 179.767 43.0781 179.441 43.1541C179.115 43.2302 178.823 43.3529 178.567 43.5224C178.316 43.6919 178.112 43.9111 177.955 44.18C177.797 44.443 177.716 44.7617 177.71 45.1358C177.733 45.4632 177.821 45.7467 177.971 45.9863C178.129 46.2201 178.321 46.4247 178.549 46.6001C178.782 46.7755 179.045 46.9246 179.336 47.0473C179.627 47.1642 179.922 47.2665 180.219 47.3542C180.522 47.436 180.816 47.5091 181.103 47.5734C181.388 47.6319 181.647 47.6874 181.88 47.7401C182.47 47.8803 183.032 48.0382 183.568 48.2136C184.104 48.3888 184.573 48.6198 184.975 48.9063C185.384 49.1926 185.707 49.558 185.946 50.0023C186.185 50.4407 186.304 50.9931 186.304 51.6595ZM201.911 42.4965C201.911 42.6602 201.877 42.7888 201.806 42.8823C201.737 42.97 201.652 43.0284 201.553 43.0577C201.232 43.1219 200.924 43.1746 200.627 43.2156C200.328 43.2564 200.031 43.2886 199.734 43.3119C199.705 43.575 199.661 44.0105 199.604 44.6184C199.551 45.2206 199.499 45.963 199.446 46.8457C199.394 47.7225 199.347 48.7191 199.306 49.8356C199.265 50.9522 199.244 52.1535 199.244 53.4395V54.2988C199.536 54.2988 199.825 54.3076 200.11 54.3251C200.396 54.3368 200.694 54.3573 201.002 54.3865C201.136 54.4157 201.238 54.4771 201.308 54.5706C201.378 54.6584 201.413 54.7665 201.413 54.895C201.401 55.0179 201.349 55.1172 201.256 55.1931C201.169 55.2692 201.066 55.3072 200.95 55.3072H200.914C200.583 55.2779 200.255 55.2546 199.936 55.2371C199.614 55.2195 199.297 55.2107 198.983 55.2107C198.668 55.2107 198.356 55.2195 198.047 55.2371C197.738 55.2546 197.435 55.2779 197.137 55.3072H197.076C196.943 55.3072 196.832 55.2604 196.745 55.1669C196.656 55.0733 196.613 54.9682 196.613 54.8512C196.613 54.7343 196.65 54.632 196.727 54.5443C196.808 54.4566 196.907 54.4041 197.024 54.3865C197.245 54.369 197.464 54.3544 197.679 54.3427C197.895 54.3251 198.114 54.3105 198.336 54.2988V53.4395C198.336 52.1594 198.353 50.961 198.388 49.8445C197.91 49.8912 197.432 49.9234 196.953 49.9409C196.476 49.9585 195.998 49.9672 195.52 49.9672C195.036 49.9672 194.561 49.9585 194.094 49.9409C193.635 49.9234 193.18 49.8912 192.731 49.8445L192.626 54.2812C192.847 54.2988 193.071 54.3163 193.299 54.3339C193.532 54.3514 193.765 54.369 193.999 54.3865C194.115 54.4041 194.211 54.4566 194.287 54.5443C194.369 54.632 194.41 54.7343 194.41 54.8512C194.41 54.9857 194.359 55.0938 194.26 55.1757C194.161 55.2633 194.057 55.3072 193.946 55.3072H193.912C193.445 55.2604 192.978 55.2225 192.513 55.1931C192.052 55.1698 191.589 55.1581 191.122 55.1581C190.661 55.1581 190.204 55.1698 189.749 55.1931C189.3 55.2225 188.849 55.2604 188.394 55.3072H188.36C188.225 55.3072 188.115 55.2604 188.027 55.1669C187.939 55.0733 187.895 54.9682 187.895 54.8512C187.895 54.7343 187.933 54.632 188.01 54.5443C188.091 54.4566 188.19 54.4041 188.307 54.3865C188.522 54.369 188.738 54.3514 188.954 54.3339C189.175 54.3163 189.393 54.2988 189.609 54.2812L189.81 43.2156C189.31 43.1805 188.802 43.1278 188.289 43.0577C188.172 43.0402 188.077 42.9875 188 42.8999C187.931 42.8121 187.895 42.7157 187.895 42.6105C187.895 42.4585 187.948 42.3416 188.053 42.2597C188.158 42.178 188.26 42.137 188.36 42.137H188.412C189.029 42.2305 189.638 42.2978 190.239 42.3386C190.839 42.3737 191.437 42.3913 192.032 42.3913C192.393 42.3913 192.748 42.3854 193.098 42.3737C193.447 42.3621 193.797 42.3386 194.147 42.3036H194.183C194.299 42.3036 194.401 42.3445 194.488 42.4264C194.581 42.5024 194.634 42.5988 194.646 42.7157C194.646 42.8618 194.602 42.9788 194.515 43.0664C194.433 43.1541 194.334 43.2038 194.217 43.2156C194.001 43.233 193.786 43.2506 193.57 43.2681C193.354 43.2856 193.133 43.3003 192.905 43.3119L192.766 48.915C193.197 48.9675 193.646 49.0056 194.112 49.029C194.579 49.0466 195.048 49.0553 195.52 49.0553C196.009 49.0553 196.494 49.0466 196.971 49.029C197.455 49.0115 197.94 48.9793 198.423 48.9325C198.446 48.2428 198.476 47.6026 198.51 47.0122C198.551 46.4219 198.589 45.8898 198.624 45.4163C198.664 44.937 198.7 44.5249 198.729 44.18C198.763 43.8294 198.793 43.5516 198.816 43.347C198.583 43.3354 198.353 43.3207 198.126 43.3032C197.904 43.2856 197.683 43.2564 197.461 43.2156C197.35 43.198 197.257 43.1483 197.182 43.0664C197.111 42.9788 197.076 42.8794 197.076 42.7683C197.076 42.6222 197.125 42.5081 197.224 42.4264C197.33 42.3445 197.432 42.3036 197.531 42.3036H197.601C197.834 42.3504 198.067 42.3826 198.3 42.4C198.534 42.4176 198.773 42.4264 199.018 42.4264C199.384 42.4264 199.76 42.4029 200.146 42.3562C200.536 42.3094 200.941 42.2364 201.361 42.137H201.466C201.576 42.137 201.67 42.1721 201.745 42.2423C201.826 42.3065 201.883 42.3913 201.911 42.4965Z" fill="black"/>
<path d="M92.5121 30.6862L90.7453 33.5211H89.7426L91.6526 30.533C91.4106 30.45 91.1814 30.3351 90.965 30.1882C90.7549 30.0413 90.583 29.8402 90.4493 29.5848C90.3156 29.3294 90.2487 29.0006 90.2487 28.5983C90.2487 27.979 90.462 27.5065 90.8886 27.1809C91.3151 26.8489 91.9519 26.6828 92.7986 26.6828H94.7086V33.5211H93.8491V30.6862H92.5121ZM92.8177 27.4203C92.4548 27.4203 92.1492 27.4618 91.9009 27.5448C91.6526 27.6278 91.4616 27.7587 91.3279 27.9375C91.2005 28.1162 91.1369 28.3493 91.1369 28.6366C91.1369 29.058 91.2769 29.3837 91.5571 29.6135C91.8373 29.8434 92.2701 29.9583 92.8559 29.9583H93.8491V27.4203H92.8177ZM97.7902 28.2918C98.1785 28.2918 98.516 28.3461 98.8025 28.4547C99.089 28.5568 99.3118 28.71 99.471 28.9144C99.6302 29.1123 99.7098 29.3549 99.7098 29.6423C99.7098 29.9551 99.6238 30.2041 99.4519 30.3893C99.28 30.568 99.0444 30.699 98.7452 30.782V30.8203C98.9489 30.8778 99.1368 30.9576 99.3087 31.0597C99.4806 31.1619 99.6174 31.2959 99.7193 31.462C99.8275 31.628 99.8817 31.8419 99.8817 32.1037C99.8817 32.3847 99.8021 32.64 99.6429 32.8699C99.4901 33.0997 99.2514 33.2817 98.9267 33.4158C98.6083 33.5499 98.1976 33.6169 97.6947 33.6169C97.4527 33.6169 97.2203 33.6041 96.9975 33.5786C96.781 33.5531 96.5837 33.5148 96.4054 33.4637C96.2335 33.4126 96.0807 33.352 95.947 33.2817V32.5251C96.1635 32.6272 96.4181 32.7199 96.711 32.8028C97.0102 32.8858 97.3349 32.9273 97.6852 32.9273C97.9398 32.9273 98.169 32.8986 98.3728 32.8411C98.5829 32.7837 98.7483 32.6942 98.8694 32.573C98.9903 32.4452 99.0508 32.2728 99.0508 32.0558C99.0508 31.8579 98.9966 31.6982 98.8885 31.5769C98.7802 31.4492 98.6178 31.3534 98.4014 31.2896C98.1913 31.2258 97.9207 31.1938 97.5896 31.1938H96.902V30.5042H97.4559C97.8953 30.5042 98.2454 30.4468 98.5065 30.3318C98.7739 30.2106 98.9076 30.0062 98.9076 29.7189C98.9076 29.4762 98.8056 29.2942 98.602 29.173C98.4045 29.0517 98.118 28.991 97.7425 28.991C97.4623 28.991 97.214 29.0197 96.9975 29.0772C96.7874 29.1283 96.555 29.208 96.3004 29.3166L96.0043 28.6462C96.2781 28.5249 96.5646 28.4355 96.8638 28.378C97.163 28.3206 97.4718 28.2918 97.7902 28.2918ZM101.125 33.5211V28.3876H101.966V30.4947H103.293C103.739 30.4947 104.105 30.5489 104.392 30.6575C104.678 30.7661 104.891 30.9289 105.031 31.1459C105.171 31.3566 105.242 31.6248 105.242 31.9504C105.242 32.2697 105.171 32.5475 105.031 32.7837C104.898 33.0199 104.684 33.2019 104.392 33.3296C104.105 33.4573 103.726 33.5211 103.255 33.5211H101.125ZM103.179 32.8411C103.542 32.8411 103.838 32.7804 104.067 32.6592C104.296 32.5314 104.411 32.3111 104.411 31.9983C104.411 31.6855 104.306 31.4748 104.096 31.3662C103.885 31.2513 103.583 31.1938 103.188 31.1938H101.966V32.8411H103.179ZM106.092 33.5211V28.3876H106.932V33.5211H106.092ZM111.586 28.3876H112.503L110.316 30.8586L112.684 33.5211H111.71L109.399 30.9161V33.5211H108.558V28.3876H109.399V30.8778L111.586 28.3876ZM117.877 30.9448C117.877 31.3726 117.82 31.7525 117.705 32.0845C117.597 32.4102 117.438 32.6879 117.228 32.9178C117.024 33.1476 116.773 33.3232 116.473 33.4445C116.18 33.5595 115.852 33.6169 115.49 33.6169C115.152 33.6169 114.84 33.5595 114.554 33.4445C114.267 33.3232 114.019 33.1476 113.809 32.9178C113.599 32.6879 113.433 32.4102 113.312 32.0845C113.198 31.7525 113.14 31.3726 113.14 30.9448C113.14 30.3765 113.236 29.8976 113.427 29.5082C113.618 29.1123 113.892 28.8123 114.248 28.6079C114.605 28.3972 115.028 28.2918 115.518 28.2918C115.983 28.2918 116.391 28.3972 116.741 28.6079C117.097 28.8123 117.374 29.1123 117.572 29.5082C117.775 29.8976 117.877 30.3765 117.877 30.9448ZM114.009 30.9448C114.009 31.3471 114.06 31.6982 114.162 31.9983C114.27 32.292 114.436 32.5187 114.659 32.6783C114.882 32.8379 115.165 32.9178 115.509 32.9178C115.852 32.9178 116.136 32.8379 116.359 32.6783C116.582 32.5187 116.744 32.292 116.846 31.9983C116.954 31.6982 117.008 31.3471 117.008 30.9448C117.008 30.5362 116.954 30.1882 116.846 29.9009C116.738 29.6135 116.572 29.3933 116.349 29.24C116.133 29.0804 115.849 29.0006 115.499 29.0006C114.977 29.0006 114.598 29.173 114.363 29.5178C114.127 29.8625 114.009 30.3382 114.009 30.9448ZM123.326 29.6806C123.326 29.9999 123.23 30.2489 123.039 30.4276C122.848 30.6064 122.602 30.7278 122.304 30.7916V30.8299C122.621 30.8745 122.898 30.9895 123.135 31.1747C123.37 31.3534 123.488 31.6344 123.488 32.0175C123.488 32.2345 123.446 32.4357 123.364 32.6209C123.287 32.8061 123.166 32.9656 123.001 33.0997C122.835 33.2338 122.621 33.3392 122.361 33.4158C122.1 33.4861 121.784 33.5211 121.416 33.5211H119.209V28.3876H121.406C121.769 28.3876 122.094 28.4292 122.38 28.5121C122.673 28.5887 122.902 28.7228 123.068 28.9144C123.24 29.0996 123.326 29.3549 123.326 29.6806ZM122.619 32.0175C122.619 31.7238 122.507 31.5131 122.285 31.3854C122.061 31.2576 121.733 31.1938 121.301 31.1938H120.05V32.8411H121.32C121.74 32.8411 122.061 32.7804 122.285 32.6592C122.507 32.5314 122.619 32.3176 122.619 32.0175ZM122.476 29.7859C122.476 29.5433 122.386 29.3678 122.208 29.2592C122.036 29.1442 121.752 29.0868 121.358 29.0868H120.05V30.4947H121.205C121.618 30.4947 121.934 30.4372 122.151 30.3223C122.367 30.2073 122.476 30.0286 122.476 29.7859ZM126.65 28.3014C127.275 28.3014 127.735 28.4387 128.035 28.7133C128.335 28.9878 128.484 29.4252 128.484 30.0254V33.5211H127.873L127.71 32.7933H127.672C127.525 32.9785 127.372 33.1348 127.214 33.2625C127.061 33.3838 126.883 33.4733 126.679 33.5307C126.482 33.5882 126.24 33.6169 125.953 33.6169C125.647 33.6169 125.371 33.5627 125.122 33.4541C124.88 33.3455 124.689 33.1796 124.549 32.9561C124.41 32.7262 124.339 32.4389 124.339 32.0941C124.339 31.5833 124.54 31.1906 124.941 30.9161C125.342 30.6351 125.959 30.4819 126.793 30.4564L127.663 30.4276V30.1211C127.663 29.6934 127.571 29.3965 127.386 29.2304C127.201 29.0644 126.94 28.9814 126.602 28.9814C126.335 28.9814 126.081 29.023 125.838 29.1059C125.596 29.1825 125.371 29.272 125.16 29.3741L124.903 28.742C125.126 28.6207 125.39 28.5185 125.695 28.4355C126.001 28.3461 126.32 28.3014 126.65 28.3014ZM126.899 31.0406C126.262 31.0661 125.819 31.1683 125.571 31.3471C125.329 31.5258 125.208 31.778 125.208 32.1037C125.208 32.391 125.294 32.6017 125.466 32.7358C125.644 32.8699 125.871 32.9369 126.144 32.9369C126.577 32.9369 126.937 32.8188 127.223 32.5825C127.51 32.3399 127.653 31.9696 127.653 31.4716V31.0118L126.899 31.0406ZM130.38 33.5211H129.405L130.867 31.3662C130.67 31.3151 130.479 31.2354 130.294 31.1268C130.11 31.0118 129.959 30.8554 129.845 30.6575C129.73 30.4531 129.673 30.201 129.673 29.9009C129.673 29.4092 129.839 29.0357 130.169 28.7803C130.501 28.5185 130.941 28.3876 131.487 28.3876H133.779V33.5211H132.939V31.4811H131.697L130.38 33.5211ZM130.485 29.9104C130.485 30.2041 130.593 30.4244 130.809 30.5713C131.033 30.7117 131.342 30.782 131.736 30.782H132.939V29.0868H131.573C131.185 29.0868 130.905 29.1634 130.733 29.3166C130.568 29.4699 130.485 29.6678 130.485 29.9104ZM145.206 28.3876V33.5211H138.263V28.3876H139.104V32.8124H141.31V28.3876H142.15V32.8124H144.366V28.3876H145.206ZM149.87 28.3876H150.787L148.6 30.8586L150.968 33.5211H149.994L147.683 30.9161V33.5211H146.843V28.3876H147.683V30.8778L149.87 28.3876ZM156.161 30.9448C156.161 31.3726 156.104 31.7525 155.989 32.0845C155.882 32.4102 155.722 32.6879 155.512 32.9178C155.309 33.1476 155.057 33.3232 154.757 33.4445C154.465 33.5595 154.137 33.6169 153.774 33.6169C153.437 33.6169 153.124 33.5595 152.838 33.4445C152.551 33.3232 152.303 33.1476 152.093 32.9178C151.883 32.6879 151.718 32.4102 151.596 32.0845C151.482 31.7525 151.424 31.3726 151.424 30.9448C151.424 30.3765 151.52 29.8976 151.711 29.5082C151.902 29.1123 152.177 28.8123 152.532 28.6079C152.889 28.3972 153.313 28.2918 153.802 28.2918C154.268 28.2918 154.675 28.3972 155.025 28.6079C155.382 28.8123 155.659 29.1123 155.856 29.5082C156.06 29.8976 156.161 30.3765 156.161 30.9448ZM152.294 30.9448C152.294 31.3471 152.345 31.6982 152.446 31.9983C152.555 32.292 152.721 32.5187 152.943 32.6783C153.166 32.8379 153.449 32.9178 153.793 32.9178C154.137 32.9178 154.421 32.8379 154.643 32.6783C154.866 32.5187 155.028 32.292 155.13 31.9983C155.239 31.6982 155.292 31.3471 155.292 30.9448C155.292 30.5362 155.239 30.1882 155.13 29.9009C155.022 29.6135 154.857 29.3933 154.633 29.24C154.417 29.0804 154.134 29.0006 153.783 29.0006C153.262 29.0006 152.883 29.173 152.647 29.5178C152.412 29.8625 152.294 30.3382 152.294 30.9448ZM161.39 33.5211H160.54V29.0868H159.031C158.968 29.8976 158.888 30.5904 158.792 31.1651C158.697 31.7334 158.576 32.1962 158.429 32.5538C158.283 32.9114 158.108 33.1731 157.904 33.3392C157.7 33.5052 157.461 33.5882 157.188 33.5882C157.106 33.5882 157.022 33.5818 156.94 33.569C156.863 33.5627 156.8 33.5466 156.749 33.5211V32.889C156.787 32.9018 156.829 32.9114 156.873 32.9178C156.917 32.9241 156.962 32.9273 157.007 32.9273C157.146 32.9273 157.274 32.8699 157.388 32.7549C157.503 32.64 157.605 32.4644 157.694 32.2282C157.79 31.992 157.876 31.6951 157.952 31.3375C158.028 30.9735 158.095 30.5458 158.153 30.0541C158.21 29.5624 158.261 29.0069 158.305 28.3876H161.39V33.5211ZM164.953 28.3014C165.578 28.3014 166.039 28.4387 166.338 28.7133C166.638 28.9878 166.787 29.4252 166.787 30.0254V33.5211H166.176L166.013 32.7933H165.975C165.828 32.9785 165.676 33.1348 165.517 33.2625C165.364 33.3838 165.186 33.4733 164.982 33.5307C164.785 33.5882 164.543 33.6169 164.256 33.6169C163.951 33.6169 163.674 33.5627 163.425 33.4541C163.183 33.3455 162.992 33.1796 162.852 32.9561C162.713 32.7262 162.642 32.4389 162.642 32.0941C162.642 31.5833 162.843 31.1906 163.244 30.9161C163.645 30.6351 164.262 30.4819 165.097 30.4564L165.966 30.4276V30.1211C165.966 29.6934 165.874 29.3965 165.689 29.2304C165.504 29.0644 165.243 28.9814 164.906 28.9814C164.638 28.9814 164.384 29.023 164.142 29.1059C163.899 29.1825 163.674 29.272 163.464 29.3741L163.206 28.742C163.429 28.6207 163.693 28.5185 163.998 28.4355C164.304 28.3461 164.623 28.3014 164.953 28.3014ZM165.202 31.0406C164.565 31.0661 164.123 31.1683 163.874 31.3471C163.632 31.5258 163.511 31.778 163.511 32.1037C163.511 32.391 163.597 32.6017 163.769 32.7358C163.947 32.8699 164.174 32.9369 164.447 32.9369C164.881 32.9369 165.24 32.8188 165.526 32.5825C165.813 32.3399 165.956 31.9696 165.956 31.4716V31.0118L165.202 31.0406Z" fill="black"/>
</svg>
