<svg width="48" height="48" viewBox="0 0 48 48" fill="none" xmlns="http://www.w3.org/2000/svg">
<path d="M35.625 3.28234C39.2071 5.35062 42.187 8.31859 44.2696 11.8924C46.3521 15.4663 47.4652 19.5221 47.4986 23.6583C47.5321 27.7945 46.4846 31.8677 44.46 35.4747C42.4355 39.0818 39.504 42.0975 35.9557 44.2234C32.4074 46.3492 28.3655 47.5115 24.23 47.5952C20.0945 47.6789 16.0088 46.6811 12.3774 44.7005C8.74608 42.72 5.69494 39.8253 3.52608 36.3032C1.35722 32.781 0.145847 28.7535 0.0118753 24.6193L0 23.8498L0.0118753 23.0803C0.144883 18.9787 1.33843 14.9815 3.47614 11.4785C5.61386 7.9754 8.6228 5.08604 12.2096 3.09206C15.7964 1.09809 19.8387 0.0675345 23.9424 0.100882C28.0461 0.134229 32.0711 1.23034 35.625 3.28234ZM23.75 9.59984C23.1683 9.59992 22.6068 9.81349 22.1721 10.2C21.7374 10.5866 21.4597 11.1192 21.3916 11.697L21.375 11.9748V23.8498L21.3964 24.161C21.4505 24.573 21.6119 24.9637 21.8643 25.2938L22.0709 25.5313L29.1959 32.6563L29.4191 32.8511C29.8356 33.1742 30.3478 33.3496 30.875 33.3496C31.4022 33.3496 31.9144 33.1742 32.3309 32.8511L32.5541 32.654L32.7513 32.4307C33.0744 32.0142 33.2498 31.502 33.2498 30.9748C33.2498 30.4477 33.0744 29.9355 32.7513 29.519L32.5541 29.2957L26.125 22.8642V11.9748L26.1084 11.697C26.0403 11.1192 25.7626 10.5866 25.3279 10.2C24.8932 9.81349 24.3317 9.59992 23.75 9.59984Z" fill="#8D001A"/>
</svg>
