<svg width="48" height="39" viewBox="0 0 48 39" fill="none" xmlns="http://www.w3.org/2000/svg">
<path d="M47.5 9.19556V31.6749C47.5001 33.4923 46.8057 35.241 45.559 36.5633C44.3122 37.8856 42.6072 38.6814 40.793 38.7881L40.375 38.7999H7.125C5.30762 38.8 3.5589 38.1057 2.23663 36.8589C0.914359 35.6121 0.118495 33.9072 0.0118753 32.0929L0 31.6749V9.19556L22.4319 24.1509L22.7074 24.3077C23.032 24.4663 23.3886 24.5488 23.75 24.5488C24.1114 24.5488 24.468 24.4663 24.7926 24.3077L25.0681 24.1509L47.5 9.19556Z" fill="#8D001A"/>
<path d="M40.3749 0.800049C42.9399 0.800049 45.189 2.1538 46.443 4.18917L23.7499 19.3179L1.05676 4.18917C1.65225 3.222 2.47039 2.41125 3.44294 1.82458C4.41549 1.23791 5.51424 0.892332 6.64751 0.816674L7.12489 0.800049H40.3749Z" fill="#8D001A"/>
</svg>
