<svg width="40" height="41" viewBox="0 0 40 41" fill="none" xmlns="http://www.w3.org/2000/svg">
<path d="M39.9978 30.5224V38.3802C39.998 38.9428 39.7849 39.4846 39.4014 39.8962C39.0178 40.3078 38.4924 40.5586 37.9312 40.598C36.9602 40.6646 36.1669 40.7002 35.5536 40.7002C15.9169 40.7002 0 24.7824 0 5.14464C0 4.53131 0.0333315 3.73797 0.102217 2.76686C0.141597 2.20563 0.392381 1.68022 0.803963 1.29666C1.21555 0.913099 1.75729 0.699941 2.31987 0.700196H10.1772C10.4528 0.699917 10.7187 0.802104 10.9232 0.986907C11.1277 1.17171 11.2563 1.42594 11.2838 1.7002C11.3349 2.21131 11.3816 2.61797 11.426 2.92686C11.8676 6.00891 12.7726 9.00649 14.1103 11.818C14.3214 12.2624 14.1837 12.7935 13.7837 13.078L8.98839 16.5046C11.9203 23.3368 17.3647 28.7814 24.1964 31.7135L27.6185 26.9269C27.7583 26.7313 27.9624 26.591 28.1951 26.5305C28.4278 26.47 28.6743 26.4931 28.8917 26.5958C31.7027 27.9311 34.6993 28.8339 37.7801 29.2735C38.089 29.318 38.4956 29.3646 39.0023 29.4158C39.2761 29.4438 39.5298 29.5726 39.7141 29.777C39.8985 29.9815 39.9981 30.2471 39.9978 30.5224Z" fill="#8D001A"/>
</svg>
