<svg width="41" height="57" viewBox="0 0 41 57" fill="none" xmlns="http://www.w3.org/2000/svg">
<path d="M20.0795 0C8.97843 0 0 8.9205 0 19.95C0 34.9125 20.0795 57 20.0795 57C20.0795 57 40.1591 34.9125 40.1591 19.95C40.1591 8.9205 31.1807 0 20.0795 0ZM20.0795 27.075C18.1776 27.075 16.3536 26.3243 15.0087 24.9881C13.6638 23.6519 12.9083 21.8397 12.9083 19.95C12.9083 18.0603 13.6638 16.2481 15.0087 14.9119C16.3536 13.5757 18.1776 12.825 20.0795 12.825C21.9815 12.825 23.8055 13.5757 25.1504 14.9119C26.4953 16.2481 27.2508 18.0603 27.2508 19.95C27.2508 21.8397 26.4953 23.6519 25.1504 24.9881C23.8055 26.3243 21.9815 27.075 20.0795 27.075Z" fill="#8D001A"/>
</svg>
