<svg width="50" height="51" viewBox="0 0 50 51" fill="none" xmlns="http://www.w3.org/2000/svg">
<g clip-path="url(#clip0_112_90)">
<path d="M25 0.899902C18.3711 0.899902 12.0078 3.53545 7.32422 8.22217C2.63579 12.9107 0.00129871 19.2694 0 25.8999C0 32.5276 2.63672 38.8909 7.32422 43.5776C12.0078 48.2644 18.3711 50.8999 25 50.8999C31.6289 50.8999 37.9922 48.2644 42.6758 43.5776C47.3633 38.8909 50 32.5276 50 25.8999C50 19.2722 47.3633 12.9089 42.6758 8.22217C37.9922 3.53545 31.6289 0.899902 25 0.899902Z" fill="#8D001A"/>
<path d="M11.3164 25.6357C18.6054 22.4607 23.4648 20.3674 25.8945 19.3561C32.8398 16.4682 34.2812 15.9666 35.2226 15.9496C35.4297 15.9463 35.8906 15.9975 36.1914 16.2406C36.4414 16.4457 36.5117 16.723 36.5468 16.9178C36.5781 17.1123 36.6211 17.5557 36.5859 17.9018C36.2109 21.8549 34.582 31.4479 33.7539 35.8756C33.4062 37.749 32.7148 38.3772 32.0469 38.4385C30.5937 38.5721 29.4922 37.4791 28.0859 36.5576C25.8867 35.115 24.6445 34.2174 22.5078 32.81C20.039 31.1834 21.6406 30.2893 23.0468 28.8283C23.414 28.4459 29.8125 22.6275 29.9336 22.0998C29.9492 22.0338 29.9648 21.7877 29.8164 21.658C29.6719 21.5279 29.457 21.5725 29.3008 21.6076C29.0781 21.6576 25.5664 23.9811 18.7539 28.5775C17.7578 29.2627 16.8554 29.5967 16.0429 29.5791C15.1523 29.56 13.4336 29.0744 12.1562 28.6596C10.5937 28.1506 9.34763 27.8814 9.45701 27.017C9.51169 26.567 10.1328 26.1064 11.3164 25.6357Z" fill="white"/>
</g>
<defs>
<clipPath id="clip0_112_90">
<rect width="50" height="50" fill="white" transform="translate(0 0.899902)"/>
</clipPath>
</defs>
</svg>
