<svg width="48" height="47" viewBox="0 0 48 47" fill="none" xmlns="http://www.w3.org/2000/svg">
<path d="M31.3752 0H16.6488C3.1992 0 0 3.13255 0 16.2785V30.698C0 43.8651 3.1752 47 16.6248 47H31.3512C44.7984 47 48 43.8909 48 30.7215V16.302C48 3.13255 44.8248 0 31.3752 0ZM38.7504 33.5345H35.2488C33.924 33.5345 33.5256 32.4841 31.1496 30.1575C29.076 28.2 28.2 27.9556 27.6744 27.9556C26.9496 27.9556 26.7504 28.1506 26.7504 29.1306V32.2138C26.7504 33.048 26.4744 33.5368 24.2496 33.5368C22.0904 33.3948 19.9966 32.7524 18.1406 31.6628C16.2847 30.5731 14.7196 29.0673 13.5744 27.2694C10.8556 23.9559 8.96386 20.067 8.0496 15.9118C8.0496 15.3972 8.2488 14.9319 9.2496 14.9319H12.7488C13.6488 14.9319 13.9728 15.3243 14.3256 16.2291C16.0248 21.1265 18.924 25.3847 20.1 25.3847C20.5512 25.3847 20.748 25.1896 20.748 24.0875V19.0444C20.5992 16.7437 19.3512 16.5487 19.3512 15.7168C19.3672 15.4974 19.4699 15.2927 19.6375 15.1462C19.8051 14.9996 20.0243 14.9228 20.2488 14.9319H25.7496C26.5008 14.9319 26.7504 15.2985 26.7504 16.1798V22.9853C26.7504 23.7209 27.0744 23.9653 27.3 23.9653C27.7512 23.9653 28.0992 23.7209 28.9248 22.9125C30.6981 20.795 32.1469 18.4359 33.2256 15.9095C33.3359 15.606 33.5445 15.3462 33.8197 15.1697C34.0948 14.9932 34.4214 14.9097 34.7496 14.9319H38.2512C39.3 14.9319 39.5232 15.4466 39.3 16.1798C38.0268 18.9726 36.4514 21.6236 34.6008 24.0875C34.224 24.6515 34.0728 24.9452 34.6008 25.6056C34.9488 26.1202 36.1752 27.1237 37.0008 28.0778C38.2006 29.2496 39.1969 30.6054 39.9504 32.0916C40.2504 33.0457 39.7488 33.5345 38.7504 33.5345Z" fill="#8D001A"/>
</svg>
